<svg xmlns="http://www.w3.org/2000/svg" xmlns:xlink="http://www.w3.org/1999/xlink" width="1680" height="1080" viewBox="0 0 1680 1080">
    <defs>
        <path id="a" d="M0 0h1680v1080H0z"/>
    </defs>
    <g fill="none" fill-rule="evenodd">
        <mask id="b" fill="#fff">
            <use xlink:href="#a"/>
        </mask>
        <g stroke="#FFF" mask="url(#b)" opacity=".08">
            <path d="M1642.845 1107.762c1.13-17.35 3.54-36.3 7.012-57.756 3.47-21.457 7.164-45.859 9.246-72.27 2.081-26.407 2.702-52.715 1.979-79.225-.723-26.508-1.408-52.905.638-72.582 4.088-39.353 9.736-71.966 18.02-101.808 8.28-29.843 20.644-56.674 40.417-75.466 19.777-18.795 48.21-29.826 77.514-36.935 29.308-7.11 63.28-12.466 96.191-21.155 32.912-8.69 54.912-21.78 62.864-39.967 7.955-18.187 3.23-41.287-5.107-60.388-8.337-19.1-18.855-41.271-30.872-61.235-12.012-19.963-25.68-39.714-43.275-59.128-17.593-19.413-38.655-38.313-59.277-56.109-20.621-17.795-42.517-33.628-62.176-51.564-19.667-17.935-35.11-42.512-39.163-76.608-4.058-34.096-2.713-74.178-6.49-109.69-3.777-35.518-21.194-67.762-28.602-92.881-7.409-25.122-7.273-44.671-5.451-61.562 1.824-16.894 15.82-48.893 4.302-79.28-11.522-30.389-25.888-57.67-49.928-83.43-12.02-12.88-27.67-25.407-46.054-35.097-18.39-9.687-42.191-18.804-65.194-24.938"/>
            <path d="M1642.373 1126.684c-.427-15.157 1.38-33.084 4.082-53.34 2.7-20.254 6.258-43.424 9.318-67.971 3.056-24.547 4.793-50.184 4.35-77.486-.446-27.303-3.253-58.317-2.181-78.844 2.145-41.05 6.683-76.266 12.642-109.395 5.958-33.128 15.453-61.482 32.714-82.652 17.259-21.17 42.465-33.121 70.184-40.67 27.717-7.545 62.58-14.771 91.576-23.26 29.001-8.487 55.23-22.437 64.65-40.71 9.418-18.274 6.333-42.049-2.178-61.826-8.513-19.776-19.44-42.794-30.317-63.478-10.879-20.683-25.085-41.387-42.439-61.181-17.36-19.798-36.983-38.723-57.711-56.5-20.73-17.777-41.676-33.093-59.434-54.43-17.757-21.335-26.07-53.527-27.283-90.757-1.214-37.234-1.453-77.953-9.612-110.992s-24.026-54.752-31.823-76.786c-7.8-22.035-5.756-39.844-.68-61.173 5.074-21.33 10.835-58.064-.945-85.934-11.786-27.87-29.113-57.252-56.318-82.526-13.605-12.637-30.088-22.474-50.728-32.252-20.644-9.778-43.072-15.62-68.21-22.233"/>
            <path d="M1643.558 1141.972c-3.865-24.56 2.361-64.739 8.817-110.803 3.232-23.033 5.481-49.832 6.42-75.364.94-25.533-1.458-52.94-2.853-80.736-1.398-27.796.725-44.125 1.924-62.863 1.204-18.736 2.934-38.388 5.106-55.241 4.343-33.712 10.813-66.586 24.813-90.098 13.997-23.512 37.234-37.45 62.247-45.344 25.016-7.894 58.073-16.08 86.594-25.541 28.52-9.462 54.782-22.54 66.096-41.94 11.31-19.4 6.881-43.037-.688-63.6-7.571-20.563-18.06-44.374-29.159-65.818-11.094-21.444-24.3-42.605-41.373-62.637-17.077-20.032-36.598-38.712-55.959-56.383-19.357-17.67-41.412-34.856-55.293-61.307-13.884-26.453-14.407-65.36-15.397-103.677-.991-38.314-5.142-77.387-18.233-101.8-13.097-24.415-26.094-45.811-33.99-65.12-7.891-19.31.837-37.765 4.61-68.583 3.778-30.814 9.688-59.545-5.473-88.26-15.159-28.717-31.349-57.46-62.043-80.835-15.344-11.688-34.806-21.567-55.805-29.4-20.995-7.833-45.406-13.83-70.21-20.96"/>
            <path d="M1645.494 1154.265c-3.697-19.851-2.56-56.434 3.547-99.868 3.057-21.715 6.265-45.783 7.571-71.718 1.303-25.935.88-51.32-1.003-78.602-1.884-27.282-1.661-49.79-1.108-70.029.556-20.236 1.25-39.587 2.458-58.12 2.406-37.063 6.56-71.603 17.572-97.7 11.01-26.098 28.146-40.026 52.259-50.383 24.118-10.356 54.2-17.963 81.697-28.53 27.498-10.567 53.698-23.878 66.7-43.657 13-19.781 9.195-44.266 1.66-65.782-7.53-21.518-17.856-46.131-28.634-68.06-10.773-21.932-23.678-43.359-40.148-63.384-16.461-20.024-35.338-37.902-54.762-56.881-19.43-18.979-39.178-40.79-47.259-73.063-8.078-32.274-4.188-71.983-7.658-111.392-3.471-39.408-14.812-63.124-27.496-84.506-12.682-21.382-29.274-41.486-33.15-64.912-3.876-23.427 4.532-46.885 10.476-75.97 5.938-29.086 1.157-59.92-14.679-87.397-15.842-27.474-33.86-56.882-67.975-76.975-17.056-10.046-38.954-20.524-60.317-27.109-21.367-6.583-46.041-13.606-70.633-22.592"/>
            <path d="M1645.944 1164.29c-1.661-18.266-4.95-48.662.28-89.165 2.616-20.251 6.086-43.854 8.197-66.935 2.109-23.082 2.504-50.611 1.16-76.689-1.34-26.08-3.203-52.734-3.287-74.101-.082-21.365.14-41.792.575-61.263.87-38.943 2.242-75.373 10.45-104.57 8.207-29.2 21.447-45.202 42.159-56.395 20.705-11.194 48.077-20.027 74.476-31.882 26.404-11.853 52.539-25.746 67.028-46.14 14.489-20.394 11.387-45.808 4.112-68.364-7.262-22.554-17.433-47.688-28.197-69.918-10.763-22.229-23.61-43.731-39.178-63.577-15.57-19.847-35.15-38.04-52.81-60.001-17.66-21.963-31.92-51.381-35.364-87.135-3.441-35.754-.391-80.487-7.711-111.674-7.318-31.185-19.947-47.65-35.868-66.114-15.919-18.463-31.349-46.083-31.128-71.774.218-25.69 10.969-54.146 16.475-80.436 5.506-26.29-5.437-58.95-22.25-85.775-16.814-26.825-38.432-52.792-76.287-73-18.93-10.103-39.758-17.124-62.982-25.076-23.224-7.95-47.335-16.006-70.306-27.213"/>
            <path d="M1643.541 1173.711c3.081-16.776-4.04-40.493-.234-74.45 1.904-16.979 4.906-36.873 7.532-58.056 2.628-21.18 4.22-45.013 4.776-67.95.558-22.938-2.297-48.946-3.865-74.71-1.562-25.764-1.23-42.36-1.46-61.974-.46-39.229-1.452-76.694 1.361-109.701 2.815-33.012 10.97-58.797 23.08-73.086 12.108-14.288 29.537-21.571 54.654-33.914 25.114-12.34 47.379-24.168 68.926-41.15 21.548-16.983 34.903-39.463 32.75-61.919-2.156-22.457-11.328-46.918-20.223-69.586-8.891-22.666-18.498-43.874-30.348-63.893-11.85-20.018-27.43-38.413-43.806-59.114-16.374-20.702-32.293-44.315-40.86-75.277-8.568-30.961-7.455-66.663-9.628-103.55-2.176-36.887-10.787-59.88-22.98-77.424-12.196-17.543-27.536-36.373-42.509-59.84-14.983-23.466-16.326-52.245-11.943-77.741 4.386-25.497 18.225-52.856 18.535-79.64.311-26.784-20.228-52.684-38.41-77.465-18.178-24.78-46.664-48.188-85.102-64.15-19.223-7.979-41.226-15.918-62.357-24.049-21.13-8.132-43.234-18.906-63.432-32.377"/>
            <path d="M1637.958 1184.95c7.728-20.274.338-37.12 3.475-69.743 1.569-16.312 4.03-32.871 6.825-53.293 2.8-20.421 5.096-42.067 5.999-64.948.906-22.882-.355-45.734-2.137-70.985-1.783-25.25-2.274-46.44-2.976-67.022-1.403-41.165-3.72-79.135-2.917-114.418.806-35.285 5.18-63.955 13.975-79.742 8.797-15.788 23.254-24.038 44.966-37.686 21.711-13.648 44.728-28.486 64.311-45.696 19.582-17.213 36.616-38.453 35.338-64.336-1.272-25.882-11.09-49.595-20.588-72.398-9.5-22.806-17.237-43.61-29.514-64.089-12.275-20.479-27.387-40.668-41.288-64.569-13.9-23.9-24.69-54.576-29.663-88.188-4.97-33.607-3.65-73.771-9.334-101.54-5.684-27.768-17.748-40.604-30.333-59.447-12.588-18.845-31.773-40.725-43.707-68.332-11.931-27.606-13.356-55.804-6.64-82.662 6.724-26.856 24.117-51.371 18.492-78.294-5.624-26.927-26.18-50.754-46.59-74.413-20.414-23.658-51.576-44.112-92.852-62.022-20.637-8.954-40.818-16.324-61.704-27.072-20.886-10.748-40.761-23.363-59.26-38.952"/>
            <path d="M1629.587 1199.11c10.974-23.741 7.373-39.68 9.852-69.321 2.477-29.641 10.575-64.911 13.278-110.04 1.352-22.565 1.452-43.954-.204-67.97s-2.661-47.913-3.69-69.486c-1.024-21.576-2.125-42.217-3.236-62.145-1.112-19.927-2.263-39.098-3.192-57.032-1.856-35.868-.913-68.121 5.752-86.368 6.66-18.244 16.174-25.088 33.923-41.074 17.75-15.986 39.713-31.626 59.028-50.643 19.312-19.017 37.777-40.483 36.817-67.282-.96-26.8-11.058-52.52-20.13-75.334-9.074-22.813-18.224-43.838-29.552-65.939-11.325-22.101-24.709-45.704-34.802-74.714-10.091-29.01-16.812-62.971-20.528-97.07-3.717-34.1-7.87-66.011-13.933-86.427-6.055-20.417-18.865-34.271-35.805-55.613-16.951-21.343-32.711-46.639-43.966-76.138-11.26-29.498-7.332-58.03.927-85.361 8.256-27.335 25.294-49.455 13.632-75.695-11.657-26.239-30.16-48.294-53.545-72.258-23.385-23.966-59.07-43.602-98.283-62.273-19.605-9.336-41.022-19.948-60.269-32.115-19.245-12.166-38.284-26.712-54.665-43.952"/>
            <path d="M1618.76 1214.573c13.726-25.634 15.595-43.702 17.717-71.125 2.12-27.426 10.547-63.26 14.338-102.936 1.892-19.837 2.631-42.24 1.621-64.619-1.015-22.38-2.524-46.91-3.527-69.888-1.003-22.974-2.282-43.994-3.79-64.837-1.507-20.842-3.26-40.814-4.936-59.574-3.351-37.52-5.952-72.28-2.767-91.94 3.189-19.663 8.965-27.383 23.487-44.546 14.528-17.164 33.614-34.575 52.257-55.654 18.646-21.08 38.696-43.411 38.433-70.586-.27-27.17-12.596-55.524-21.62-78.966-9.024-23.44-17.506-44.95-26.98-70.809-9.47-25.86-19.02-54.958-25.87-86.865-6.847-31.902-11.767-68.561-17.245-99.323-5.477-30.76-9.441-50.738-18.885-66.37-9.44-15.629-23.677-36.438-38.823-60.348-15.145-23.91-35.588-52.73-43.99-82.925-8.401-30.196-2.006-58.673 7.665-85.93 9.672-27.256 21.096-49.63 6.483-72.382-14.611-22.75-33.478-48.43-59.383-72.71-12.951-12.141-27.506-22.435-45.287-34.384-17.785-11.947-35.789-19.777-56.24-30.847-20.449-11.069-39.339-22.026-57.637-35.674-18.3-13.65-35.925-29.712-50.338-48.61"/>
            <path d="M1605.808 1231.449c17.485-26.743 23.34-46.174 25.916-71.045 2.573-24.867 9.737-54.219 15.1-89.897 2.682-17.841 4.412-37.01 5.01-56.613.599-19.603-1.203-40.27-2.379-62.313-1.177-22.043-1.528-46.115-2.697-67.135-1.173-21.018-2.846-42.226-4.862-61.278-4.04-38.105-8.038-77.062-11.131-103.306-3.093-26.241-2.283-38.369 2.75-50.919 5.034-12.553 18.387-33.049 34.61-53.072 16.225-20.026 37.752-41.815 49.143-65.266 11.39-23.454 5.056-52.192-3.28-79.641-8.333-27.45-16.87-50.077-23.335-75.955-6.469-25.878-13.144-53.919-18.91-83.952-5.764-30.033-10.712-63.313-16.91-93.29-6.193-29.977-12.902-53.06-19.384-70.222-6.48-17.161-14.799-32.114-25.92-52.372-11.118-20.26-28.663-44.226-44.129-71.003-15.467-26.78-30.1-56.831-30.06-84.667.044-27.832 12.912-57.038 21.442-77.1 8.534-20.064 1.124-44.946-15.887-67.874-17.01-22.927-36.29-51.565-63.424-72.776-13.56-10.604-29.7-22.338-47.178-32.684-17.476-10.346-35.681-19.984-53.556-30.934-17.879-10.952-36.02-23.59-52.529-38.18-16.508-14.588-30.937-31.298-43.701-51.015"/>
            <path d="M1590.035 1249.166c21.018-28.366 31.477-49.283 35.347-73.851 3.87-24.567 11.171-54.13 17.773-87.569 6.596-33.436 8.463-70.06 5.901-111.546-1.281-20.744-1.435-45.74-2.385-68.592-.944-22.85-2.486-45.115-4.483-65.416-3.99-40.602-9.811-80.874-15.29-109.404-5.484-28.533-9.474-41.744-8.093-54.212 1.377-12.468 12.26-35.055 24.226-56.412 11.968-21.355 34.395-45.118 46.784-70.196 12.39-25.08 6.158-55.99-2.021-86.093-8.18-30.105-15.291-57.504-19.416-86.248-4.126-28.743-8.417-59.43-13.005-90.315-4.594-30.882-10.423-63.301-19.228-85.768-8.812-22.467-14.997-39.357-20.607-56.194-5.613-16.839-12.79-34.73-26.523-57.44-13.73-22.709-30.34-48.316-46.228-75.843-15.89-27.528-29.214-57.722-26.903-85.47 2.312-27.751 17.161-55.636 24.742-73.904 7.571-18.269-5.715-46.892-24.275-71.467-18.56-24.576-38.443-52.783-67.133-75.597-14.345-11.406-32.063-24.21-48.458-33.995-16.393-9.788-34.713-20.581-52.758-32.95-18.042-12.37-34.809-25.425-50.644-41.428-15.834-16.004-27.864-34.21-40.017-54.586"/>
            <path d="M1572.486 1266.788c22.41-27.955 38.22-51.92 44.971-75.873 6.754-23.948 12.746-54.92 20.602-86.32 7.857-31.4 12.14-68.22 10.24-105.423-.951-18.602-1.549-43.24-2.24-67.21-.69-23.973-1.806-47.16-3.685-69.451-1.879-22.295-4.511-43.37-7.88-63.233-3.372-19.863-6.061-39.05-9.685-54.655-7.253-31.204-16.753-45.056-18.29-59.113-1.54-14.06 3.841-36.492 13.4-59.956 9.557-23.463 29.88-48.392 43.961-76.66 14.079-28.264 8.015-61.506.407-94.93-7.611-33.428-12.42-63.424-15.281-93.917-2.864-30.496-6.108-62.446-11.848-91.074-5.738-28.625-12.935-52.011-22.042-70.87-9.113-18.856-16.334-34.326-22.005-51.762-5.662-17.438-12.143-38.45-25.76-63.067-13.619-24.616-32.016-50.486-48.137-78.166-16.115-27.68-27.745-57.78-23.188-85.306 4.555-27.526 21.437-53.68 27.388-71.56 5.959-17.88-12.816-50.488-32.288-77.056-19.478-26.568-40.054-53.815-70.18-78.742-15.061-12.464-31.823-23.564-49.093-34.417-17.27-10.853-35.891-22.846-52.797-35.605-16.904-12.76-33.997-27.238-48.583-44.259-14.584-17.02-25.582-36.555-34.573-55.449"/>
            <path d="M1552.411 1283.97c25.595-28.198 45.286-53.603 54.999-77.25 9.704-23.645 15.23-54.73 24.165-85.298 8.937-30.572 16.075-65.01 15.214-100.927-.432-17.96-1.455-37.747-1.904-63.366-.454-25.618-1.258-49.62-2.874-73.166s-4.108-46.209-7.489-67.493c-3.383-21.287-6.802-42.241-10.982-59.6-8.36-34.711-21.446-51.238-26.853-66.52-5.41-15.284-4.265-39.132 2.845-65.237 7.106-26.102 25.386-53.251 41.036-84.264 15.65-31.015 10.813-66.614 3.317-102.974-7.499-36.358-11.202-68.235-14.14-98.467-2.94-30.232-7.855-58.762-14.456-82.52-6.603-23.758-15.135-41.337-23.363-58.949-8.236-17.612-14.44-34.146-19.531-53.275-5.096-19.13-11.837-41.82-26.692-67.59-14.851-25.77-34.79-51.661-51.198-79.23-16.406-27.57-25.231-57.68-18.503-85.108 6.729-27.427 23.124-45.72 30.13-72.276 7.002-26.556-19.685-53.6-40.317-81.841-20.631-28.243-42.33-54.727-74.128-81.801-15.902-13.538-31.399-22.506-49.753-34.75s-34.967-23.759-51.675-37.322c-16.71-13.564-32.322-28.189-43.284-44.875-10.964-16.685-18.548-35.87-26.853-54.41"/>
            <path d="M1530.877 1300.18c26.47-27.837 49.593-53.586 63.601-77.512 14.006-23.923 19.32-52.446 29.22-82.777 9.902-30.33 20.027-64.372 20.439-98.332.206-16.975-.766-31.598-.992-58.152-.226-26.553-.94-52.066-2.289-76.743-1.351-24.68-3.634-49.015-6.91-71.714-3.27-22.694-7.112-45.685-11.769-64.503-9.313-37.64-25.058-58.467-33.983-75.478-8.93-17.013-11.96-43.23-7.066-72.053 4.9-28.824 20.551-58.701 37.728-92.514 17.177-33.813 13.315-71.408 5.374-109.728-7.941-38.319-12.49-70.115-16.512-97.378-4.022-27.262-11.38-50.258-17.815-70.164-6.439-19.907-17.218-36.487-23.558-54.249-6.339-17.76-11.576-36.07-15.478-56.646-3.896-20.58-11.447-43.839-27.91-70.308-16.466-26.47-37.684-51.93-53.795-79.623-16.114-27.692-22.928-57.808-13.602-85.358 9.321-27.55 30.008-46.843 32.11-74.063 2.1-27.218-27.47-56.552-48.349-86.649-20.884-30.098-46.355-60.684-77.062-83.764-15.354-11.54-33.067-22.92-48.74-33.74-15.675-10.82-32.394-23.355-47.31-36.993-14.92-13.637-28.017-29.177-37.115-46.887-9.102-17.71-16.162-36.713-23.951-54.848"/>
            <path d="M1507.296 1314.235c29.835-25.82 56.026-53.211 72.148-76.658 16.122-23.447 24.301-47.99 35.339-79.716 11.037-31.725 21.865-64.528 25.308-96.518 1.722-15.995.645-24.323.677-50.958.028-26.638-.427-52.761-1.661-79.125-1.235-26.366-3.37-52.041-6.659-75.945-3.287-23.904-7.85-46.965-12.533-68.856-9.358-43.787-27.645-66.47-40.15-85.477-12.507-19.01-19.438-47.525-16.834-79.341 2.605-31.815 15.036-64.248 33.528-100.621 18.484-36.372 15.351-75.173 6.169-114.335-9.179-39.16-16.753-68.724-21.21-91.603-4.457-22.877-10.292-42.65-18.631-60.911-8.342-18.26-14.654-35.11-20.692-53.977-6.039-18.865-8.84-38.184-12.543-59.758-3.701-21.576-13.007-47.319-30.532-71.854-17.526-24.537-39.64-52.781-55.892-80.597-16.245-27.816-17.302-60.111-7.936-85.772 9.365-25.659 34.597-47.669 32.08-76.11-2.516-28.443-33.161-60.3-54.669-90.282-21.502-29.981-45.996-58.216-76.55-81.884-15.274-11.83-31.044-22.574-46.39-34.417-15.345-11.843-30.757-24.555-44.839-39.166-14.087-14.612-24.493-31.26-32.2-49.318-7.705-18.056-14.763-36.161-23.297-55.183"/>
            <path d="M1483.474 1322.14c29.026-15.495 55.752-44.88 75.293-67.21 19.543-22.332 30.251-43.054 41.885-70.781 11.63-27.73 24.349-57.333 30.957-88.724 6.612-31.39 6.985-59.465 5.878-110.085-.554-25.31-1.613-50.485-3.703-75.383-2.088-24.897-5.234-48.764-9.915-72.109-4.68-23.344-9.003-45.908-15.83-64.661-6.826-18.753-15.518-33.543-24.062-44.963-17.088-22.837-34.119-42.26-38.67-72.304-4.556-30.045-3.472-65.2 8.466-100.9 11.936-35.702 35.044-68.49 32.72-105.754-2.325-37.262-17.874-82.409-24.07-104.261-6.203-21.853-13.553-40.676-18.589-58.804-5.035-18.13-11.384-35.24-17.18-53.242-5.794-18.002-10.627-36.513-13.805-55.931-3.184-19.42-3.983-39.448-12.259-62.802-8.27-23.357-25.074-46.835-44.445-72.566-19.377-25.732-41.13-54.216-49.083-82.57-7.948-28.355 2.326-53.801 16.115-77.27 13.789-23.47 31.692-46.903 14.204-78.35-17.493-31.449-37.956-57.945-59.117-86.9-21.159-28.954-47.596-54.963-74.998-76.482-27.404-21.52-58.904-44.65-82.54-74.753-23.643-30.103-33.04-67.369-47.803-101.71"/>
            <path d="M1460.63 1323.739c24.656-11.393 57.833-34.446 78.397-56.156 20.568-21.712 37.068-42.997 48.895-68.074 11.821-25.076 26.58-56.278 35.21-85.176 8.635-28.9 11.075-51.627 10.797-102.947-.139-25.66-.75-52.167-2.751-77.24-2.001-25.07-5.223-49.724-10.082-73.576-4.856-23.85-9.985-47.7-17.158-67.718-7.176-20.017-17.708-36.445-26.875-49.082-18.332-25.27-40.402-43.56-50.045-77.164-9.642-33.607-9.595-71.924-.008-106.927 9.587-35.007 34.874-70.257 32.923-107.196-1.955-36.94-20.281-82.585-27.958-102.664-7.675-20.08-11.133-38.905-16.056-57.437-4.922-18.531-10.4-36.822-15.105-55.651-4.71-18.828-8.913-38.412-11.522-58.5-2.616-20.091-3.51-41.574-11.994-64.337-8.485-22.76-27.305-48.004-46.754-74.635-19.45-26.634-43.005-55.523-48.616-83.426-5.609-27.903 7.634-52.056 22.461-75.617 14.83-23.562 24.966-53.474 7.474-81.573-17.495-28.099-38.248-59.803-59.309-88.89-21.062-29.085-45.937-53.768-74.009-76.79-28.07-23.019-58.426-46.733-78.525-77.451-20.096-30.72-28.627-68.443-42.955-99.522"/>
            <path d="M1440.92 1321.4c22.086-9.264 51.886-23.47 75.948-43.658 24.06-20.19 41.91-39.861 56.428-64.993 14.52-25.13 27.717-49.519 38.587-80.282 10.872-30.763 16.142-43.462 16.894-95.66.377-26.1.045-51.9-1.482-77.314-1.529-25.414-4.495-51.061-9.195-75.415-4.701-24.358-10.494-49.305-18.085-70.422-7.591-21.121-18.19-38.296-30.127-52.028-23.872-27.46-48.842-44.52-62.11-78.638-13.272-34.116-16.58-74.659-9.449-111.493 7.128-36.832 33.632-71.272 32.483-108.315-1.147-37.043-21.062-83.091-27.33-103.82-6.266-20.728-10.744-40.206-15.452-59.573a2048.433 2048.433 0 0 1-13.325-58.735c-4.195-19.806-7.88-40.143-10.115-60.622-2.235-20.48-1.926-42.631-11.427-66.194-9.502-23.564-28.493-50.021-49.211-76.941-20.727-26.922-42.171-55.292-44.593-82.53-2.415-27.238 11.33-52.421 26.203-76.693 14.868-24.274 18.99-55.32-.085-84.739-19.07-29.418-39.193-61.318-59.852-90.089-20.653-28.773-43.522-52.06-71.383-76.082-27.864-24.023-55.672-47.16-73.137-77.836-17.466-30.674-24.235-59.756-39.535-96.87"/>
            <path d="M1423.032 1316.765c19.617-9.33 44.159-17.737 70.621-34.172 26.461-16.435 48.471-35.672 63.166-58.524 14.697-22.85 30.13-48.009 41.752-76.12 11.622-28.11 19.306-35.314 22.224-86.93 1.46-25.808 1.863-51.462.963-77.658-.899-26.193-3.45-51.688-7.832-75.983-4.38-24.298-10.934-48.068-18.42-71.285-7.485-23.217-18.986-40.752-31.83-55.035-25.687-28.568-56.342-45.314-73.729-79.137-8.693-16.912-13.792-35.995-17.124-55.372-3.331-19.376-4.597-39.818-2.201-59.123 4.793-38.61 32.543-72.363 32.411-109.966-.132-37.604-21.018-84.755-27.712-106.472-6.69-21.716-10.554-42.63-15.234-63.222-4.68-20.593-8.591-41.396-12.485-61.986-3.883-20.591-5.271-41.767-7.407-62.78-2.138-21.015-.705-44.187-11.047-68.644-10.341-24.453-30.772-51.267-51.165-77.706-20.4-26.436-39.011-55.426-39.916-83.177-.905-27.747 13.853-51.589 27.217-79.217 13.362-27.628 13.052-55.8-6.37-85.67-19.42-29.868-38.139-61.139-58.394-89.01-20.258-27.87-46.032-52.542-69.839-74.086-23.808-21.544-53.019-47.002-67.81-78.72-14.787-31.72-22.704-62.201-35.994-96.702"/>
            <path d="M1406.646 1312.634c16.81-7.298 36.819-16.471 62.794-30.086 25.98-13.615 52.371-29.462 69.932-50.11 17.56-20.649 30.587-44.551 43.582-71.434 12.994-26.883 20.806-52.46 26.302-79.726 2.75-13.635 3.8-49.528 3.756-75.282-.045-25.756-1.426-50.748-5.397-76.218-3.972-25.47-10.095-48.685-17.786-72.043-7.692-23.355-19.21-43.17-32.716-57.755-27.009-29.17-63.37-44.988-84.543-78.025-10.585-16.517-17.806-36.137-22.64-55.88-4.832-19.742-7.619-40.533-6.522-60.797 2.197-40.533 30.395-73.626 31.63-112.156 1.233-38.527-20.77-86.875-27.917-110.078-7.148-23.202-10.946-45.66-15.816-67.426-4.866-21.765-8.775-43.276-11.11-64.91-2.339-21.638-5.063-43.158-5.463-65.238-.399-22.082-.2-45.905-10.155-70.86-9.956-24.954-31.303-50.973-50.928-78.077-19.632-27.103-37.095-57.325-37.187-85.51-.094-28.185 16.85-52.96 29.139-79.714 12.293-26.754 7.397-54.856-12.979-84.504-20.377-29.646-38.43-59.352-57.51-87.54-19.08-28.19-43.19-50.362-66.27-72.656-23.08-22.295-50.007-48.243-62.594-80.045-12.585-31.8-21.285-63.698-32.505-95.352"/>
            <path d="M1391.292 1308.937c15.585-9.415 32.957-20.473 55.37-30.35 22.418-9.877 53.62-25.093 73.628-42.331 20.01-17.24 34.908-40.322 46.676-65.092 11.766-24.766 21.43-50.509 28.263-76.98 3.414-13.238 5.536-44.436 6.281-69.233.744-24.796.05-50.031-3.235-75.015-3.284-24.984-8.941-48.861-16.547-72.062-7.608-23.2-19.121-44.882-32.843-59.882-13.724-15.001-31.413-26.45-48.054-37.723-16.645-11.273-33.465-23.1-45.895-39.044-12.43-15.94-21.788-35.893-28.123-55.864-6.333-19.972-10.523-40.917-10.888-62.146-.367-21.228 5.005-41.29 12.551-59.484 7.543-18.193 16.264-35.344 17.808-55.234 1.54-19.89-4.007-39.135-10.367-58.444-6.359-19.308-13.77-43.374-17.68-55.7-7.818-24.65-12.816-48.062-16.589-71.117-3.773-23.055-7.351-45.441-9.553-67.95-2.203-22.509-2.943-45.317-3.015-68.027-.073-22.71.027-46.746-10.24-71.933-10.26-25.188-29.561-51.88-48.803-80.088-19.246-28.21-33.908-58.324-33.54-85.875.367-27.55 17.47-52.822 27.549-78.45 10.083-25.63 3.456-53.852-17.256-83.312-20.71-29.459-37.715-58.646-55.846-86.248-18.13-27.601-40.757-48.527-62.83-71.453-22.07-22.926-46.331-49.114-56.913-80.644-10.58-31.529-19.632-64.246-29.28-94.117"/>
            <path d="M1376.439 1306.945c14.358-10.463 29.74-22.94 49.399-33.733 19.653-10.793 45.06-21.542 69.733-36.82 24.673-15.276 42.141-35.144 54.734-57.93 12.597-22.784 22.236-48.788 28.416-73.97 3.088-12.59 6.39-38.016 8.212-63.306 1.819-25.294 2.112-50.273-.204-74.637-2.311-24.363-7.734-48.962-15.167-71.819-7.438-22.86-17.1-44.802-32.438-61.252-15.34-16.451-33.45-27.204-51.529-37.907-18.081-10.706-36.509-21.542-51.452-36.865-14.94-15.32-25.74-35.297-33.541-55.379-7.804-20.082-13.379-40.937-15.3-63.17-1.92-22.232 1.779-42.428 9.246-61.73 7.469-19.305 16.633-35.222 19.372-55.814 2.738-20.591-2.413-40.042-8.889-59.639-6.477-19.595-13.484-39.99-18.252-58.202-6.742-25.77-12.472-50.778-16.634-74.845-4.165-24.068-6.368-47.722-8.13-71.205-1.762-23.484-1.186-46.808-.904-69.96.28-23.15.855-47.634-8.583-73.549-9.44-25.917-29.5-53.58-46.76-81.32-17.263-27.74-33.72-57.01-32.208-84.04 1.516-27.033 18.544-52.228 26.949-77.006 8.401-24.774-.447-52.704-21.213-82.295-20.769-29.59-36.27-59.69-53.337-84.434-17.068-24.744-37.856-46.951-58.9-70.55-21.046-23.6-42.734-50.034-51.776-81.525-9.04-31.492-18.247-64.966-26.49-93.409"/>
            <path d="M1362.03 1305.018c12.427-6.116 25.613-20.757 41.856-33.374 16.245-12.615 36.577-22.068 58.599-34.397 22.016-12.327 44.478-30.189 63.219-48.07 18.744-17.88 25.776-42.595 33.334-64.707 7.552-22.113 14.696-63.742 14.872-111.86.08-24.06-1.81-47.504-6.305-69.924-4.491-22.42-11.35-44.413-20.2-66.297-8.846-21.883-23.689-37.065-41.293-49.494-17.603-12.43-36.383-20.78-55.306-31.117-18.925-10.334-36.494-22.383-50.173-39-13.678-16.618-23.615-36.33-31.066-56.541-7.449-20.208-12.658-41.612-13.343-62.525-.684-20.914 4.982-41.236 12.456-58.85 14.94-35.231 20.658-74.267 7.584-112.4-13.074-38.133-22.147-69.699-27.263-94.59-5.11-24.894-8.9-48.967-11.24-72.546-2.338-23.579-2.681-46.569-1.739-69.447.945-22.881 2.759-45.328 3.387-68.636.63-23.309-7.007-48.91-20.317-75.523-13.309-26.611-33.758-50.607-47.582-76.24-13.824-25.631-19.883-52.833-12.58-77.786 7.307-24.954 19.63-43.099 25.001-70.16 5.372-27.06-19.213-53.372-36.6-79.873-17.39-26.5-31.88-54.74-47.988-78.311-16.106-23.57-33.85-43.325-53.736-66.92-19.886-23.596-35.356-50.362-42.465-80.265-7.11-29.9-16.207-62.502-23.214-88.45"/>
            <path d="M1347.61 1301.286c12.532-5.072 23.22-15.49 37.992-29.77 14.774-14.28 32.314-25.798 51.937-38.436 19.617-12.642 39.835-24.927 57.809-43.747 17.976-18.818 37.045-37.127 45.374-59.87 8.332-22.745 16.628-57.725 18.51-105.115.94-23.695.24-46.617-3.836-70.161-4.077-23.546-10.822-44.423-19.986-66.011-9.168-21.59-23.634-39.143-41.512-51.673-17.879-12.526-38.432-20.797-59.196-30.447-20.762-9.649-40.387-20.554-55.728-36.274-15.34-15.72-27.245-35.672-36.025-55.911-8.78-20.242-15.243-41.546-17.381-63.412-2.137-21.866 1.906-42.163 9.428-60.878 15.043-37.429 24.676-74.966 12.404-113.78-12.272-38.817-22.809-73.094-28.42-99.014-5.617-25.923-8.97-50.694-9.547-74.965-.583-24.274.618-47.917 2.56-71.4 1.943-23.485 4.133-46.801 4.778-70.389.648-23.587-5.443-48.432-18.92-74.15-13.48-25.717-32.811-48.805-46.771-73.826-13.96-25.02-19.193-51.472-12.26-75.669 6.931-24.196 19.037-42.254 22.71-68.484 3.675-26.23-20.73-52.242-37.561-78.351-16.835-26.108-30.267-54.046-45.363-77.515-15.093-23.47-32.92-44.259-49.96-67.019-17.044-22.761-32.223-51.262-38.533-81.029-6.311-29.765-15.293-62.769-21.397-88.304"/>
            <path d="M1332.934 1296.182c11.903-3.997 23.882-14.19 35.782-24.424 11.903-10.236 27.981-25.73 45.13-39.646 17.151-13.914 35.567-28.21 52.28-44.751 16.711-16.542 30.624-34.022 43.342-54.912 12.722-20.89 28.795-51.451 32.496-98.008 1.85-23.276 2.036-46.771-1.068-70.022-3.109-23.252-9.368-45.04-18.237-66.414-8.87-21.379-22.866-41.302-40.589-54.148-17.726-12.848-40.029-21.253-62.114-30.261-22.09-9.008-44.194-18.841-61.263-33.555-17.071-14.715-31.107-34.705-41.325-54.853-10.216-20.149-17.874-41.072-21.68-63.902-3.807-22.83-1.779-42.972 5.568-62.942 7.348-19.97 18.048-38.657 21.717-55.223 3.674-16.562.92-39.834-4.976-60.1-11.787-40.532-23.317-76.23-27.683-102.908-4.37-26.677-5.369-52.22-4.915-77.149.452-24.925 2.807-49.274 5.027-73.267 2.216-23.994 5.424-47.305 5.912-70.41.49-23.103-5.12-47.05-18.468-71.896-13.352-24.846-32.27-47.225-46.224-71.195-13.96-23.973-19.148-49.387-12.581-72.742 6.566-23.353 18.238-41.153 20.286-66.78 2.047-25.628-21.691-50.542-38.354-77.403-16.663-26.861-29.286-52.415-42.85-77.276-13.565-24.862-30.176-44.224-46.057-67.661-15.879-23.438-29.21-51.942-34.991-82.294-5.785-30.354-14.14-63.363-19.5-88.796"/>
            <path d="M1318.384 1289.49c11.994-3.016 22.213-9.215 33.548-18.116 11.337-8.9 24.899-22.065 39.595-36.236 14.695-14.172 31.51-30.498 46.39-47.945 14.882-17.446 27.693-35.4 39.243-54.466 11.545-19.07 22.89-42.172 30.973-89.923 4.04-23.874 6.526-46.686 5.995-69.607-.531-22.919-4.498-45.739-11.344-66.92-6.846-21.179-16.726-41.719-34.782-56.475-18.06-14.754-40.35-22.397-63.622-30.805-23.272-8.41-46.712-17.042-66.4-30.89-19.691-13.849-34.519-32.184-46.924-53.487-12.408-21.303-20.903-42.824-25.934-64.507-5.03-21.685-4.475-45.805 1.87-64.858 6.343-19.05 19.093-39.846 24.43-57.202 5.34-17.358 4.287-39.498-.51-59.914-9.596-40.832-21.501-78.627-24.596-106.07-3.091-27.442-2.77-53.675-1.519-79.197 1.253-25.523 4.33-50.281 6.659-74.188 2.329-23.904 5.325-46.786 5.747-69.257.424-22.47-5.138-45.813-18.22-69.529-13.08-23.716-31.917-44.767-45.793-67.592-13.88-22.825-19.532-47.131-13.573-69.765 5.96-22.633 17.004-40.284 17.917-65.651.918-25.368-22.738-50.126-39.041-77.002-16.304-26.876-27.921-52.502-40.309-77.68-12.382-25.18-27.437-44.622-42.167-68.79-14.729-24.166-26.654-53.204-31.783-83.715-5.131-30.513-13.561-63.557-18.934-88.757"/>
            <path d="M1303.589 1281.26c11.06-3.556 20.826-5.308 31.203-12.318 10.38-7.011 22.397-17.188 36.047-29.766 13.647-12.577 27.921-28.79 40.687-46.775 12.764-17.98 23.738-38.585 33.897-58.246 10.16-19.658 20.502-38.404 28.594-84.803 4.048-23.2 6.571-46.947 6.466-69.41-.114-22.461-3.736-46.182-9.86-67.132-6.128-20.948-14.633-42.687-30.586-58.594-15.953-15.906-37.301-25.431-59.103-33.925-21.797-8.492-44.906-16.61-64.71-29.681-19.806-13.073-35.444-30.767-47.973-51.429-12.53-20.66-21.536-42.633-26.922-64.68-5.387-22.046-6.03-45.769-.588-65.903 5.446-20.133 17.638-39.996 24.075-58.063 6.435-18.068 7.261-38.79 3.491-59.14-7.535-40.697-19.732-80.311-21.741-108.472-2.008-28.16-1.337-55.027.633-80.83 1.969-25.803 4.367-50.437 6.998-74.067 2.63-23.63 4.85-46.133 5.148-67.912.296-21.777-5.36-43.921-18.116-66.246-12.763-22.324-31.59-41.973-45.598-63.822-14.008-21.849-20.047-45.287-15.088-67.084 4.958-21.797 15.326-39.493 15.335-64.91.003-25.414-23.452-50.244-39.544-77.3-16.095-27.055-27.127-52.8-38.483-78.274-11.349-25.473-25.083-45.145-38.873-69.916-13.788-24.771-24.829-54.123-29.61-84.708-4.783-30.583-12.457-64.313-17.356-89.937"/>
            <path d="M1289.446 1272.544c9.616-2.38 18.866-4.173 28.425-9.07 9.563-4.896 19.579-11.183 32.133-21.17 12.557-9.986 26.054-24.507 36.806-40.858 10.752-16.351 20.435-38.386 28.792-58.777 8.356-20.387 16.388-36.61 24.538-83.988 4.071-23.688 6.933-47.406 7.104-71.601.173-24.194-2.133-46.046-8.132-68.836-5.999-22.794-12.639-43.91-26.513-60.91-13.873-17.003-32.836-28.029-54.657-37.58-21.819-9.555-42.72-16.948-62.087-29.471-19.37-12.523-35.261-29.556-47.495-49.39-12.233-19.833-21.412-41.823-27.11-63.935-5.7-22.113-7.597-45.002-3.018-66.103 4.577-21.1 15.885-40.039 23.467-58.728 7.582-18.69 10.59-38.078 7.76-58.333-5.659-40.51-18.096-82.104-19.394-110.866-1.298-28.762-.213-55.95 1.79-81.786 2.003-25.838 4.672-50.263 6.93-73.562 2.254-23.298 4.36-45.063 4.096-65.932-.26-20.871-5.619-41.423-18.225-62.46-12.604-21.04-31.185-39.593-45.728-60.354-14.544-20.758-21.012-43.63-17.122-64.944 3.89-21.313 12.386-38.905 11.53-64.576-.854-25.67-24.054-50.758-39.947-78.187-15.897-27.43-26.266-53.533-36.41-79.421-10.143-25.89-22.47-46.02-35.184-71.416-12.719-25.392-22.89-55.097-27.116-85.878-4.228-30.782-11.318-64.774-16.35-91"/>
            <path d="M1275.328 1264.691c9.526-4.342 17.47-6.236 25.57-9.977 8.1-3.741 17.134-6.114 28.118-12.893 10.982-6.78 23.148-15.767 33.724-31.197 10.573-15.429 17.962-31.048 25.032-53.48 7.069-22.43 12.289-27.253 20.568-80.168 4.138-26.46 6.831-50.045 7.261-75.043.427-24.995-1.549-48.755-6.733-72.212-5.188-23.458-11.383-46.55-23.311-65.199-11.929-18.648-29.757-32.181-49.561-42.855-19.8-10.676-40.222-18.413-58.963-30.678-18.742-12.265-34.742-28.782-46.516-47.803-11.773-19.022-20.868-40.802-26.71-62.84-5.84-22.042-8.59-43.853-4.88-65.903 3.715-22.052 13.733-40.22 22.39-59.649 8.659-19.43 14.116-37.833 12.187-58.236-3.858-40.8-16.322-85.095-17.118-114.279-.794-29.184.56-56.505 2.497-82.29 1.944-25.781 4.506-49.951 6.343-72.6 1.836-22.652 3.455-43.602 2.759-63.327-.699-19.727-5.893-39.276-18.69-58.896-12.792-19.62-31.12-37.162-46.275-57.3-15.15-20.138-23.286-42.408-20.7-63.559 2.587-21.15 9.792-39.379 8.119-65.486-1.677-26.11-24.765-51.444-40.644-79.305-15.88-27.857-25.798-54.345-34.75-80.649-8.95-26.307-19.882-47.009-31.586-72.932-11.707-25.925-21.321-55.906-25.175-86.954-3.851-31.05-10.523-65.326-15.296-92.122"/>
            <path d="M1261.023 1257.648c10.078-5.225 16.858-7.767 24.06-12.952 7.204-5.188 13.129-4.597 23.057-8.492 9.93-3.894 20.287-8.735 29.89-19.885 9.602-11.15 16.548-24.103 22.86-43.618 6.317-19.513 9.777-16.917 17.646-70.11 3.938-26.597 6.775-52.465 7.445-77.99.67-25.525-1.043-51.26-5.5-75.474-4.46-24.216-10.367-49.148-20.385-69.732-10.017-20.585-26.606-37.077-44.425-49.185-17.821-12.109-37.845-21.206-55.455-33.379-17.613-12.172-33.962-28.76-45.187-47.265-11.227-18.506-20.05-40.194-25.912-62.395-5.858-22.2-8.824-45.408-6.33-66.453 2.492-21.042 11.03-40.922 20.677-61.451 9.642-20.53 15.646-39.433 16.255-59.62.612-20.188-4.198-41.614-7.986-62.267-3.786-20.652-6.186-41.62-6.426-56.354-.473-29.465.963-56.85 2.744-82.38 1.775-25.528 3.987-49.17 5.37-71.048 1.387-21.881 2.217-41.95.92-60.676-1.3-18.726-6.627-36.964-19.535-55.518-12.91-18.551-31.902-35.224-47.877-55.16-15.97-19.937-25.772-42.37-25.014-63.552.762-21.182 6.503-40.12 4.395-66.885-2.112-26.764-24.79-52.346-40.574-80.68-15.788-28.332-25.322-55.147-32.978-81.819-7.66-26.673-17.226-47.923-27.898-74.171-10.674-26.25-19.853-56.357-23.19-87.507-3.34-31.152-9.337-65.413-13.994-92.728"/>
            <path d="M1246.554 1251.366c9.662-7.395 17.637-13.308 23.267-16.703 5.634-3.39 11.17-6.556 18.597-9.08 7.427-2.523 16.663-3.598 24.95-10.37 8.288-6.77 14.327-16.166 19.912-31.325 5.582-15.159 7.332-2.66 15.596-54.831 4.136-26.088 7.536-52.91 8.661-79.383 1.127-26.473-.028-53.227-3.63-77.963-3.604-24.736-9.15-51.209-17.661-73.202-8.51-21.993-23.706-41.52-39.473-55.228-15.764-13.707-34.61-24.456-51.465-36.81-16.854-12.354-31.617-27.844-43.342-47.31-11.729-19.465-19.534-40.79-25.158-63.131-5.62-22.34-8.872-45.94-7.24-68.188 1.63-22.248 9.729-44.76 18.17-63.544 8.444-18.785 17.705-40.406 19.81-61.57 2.103-21.163-1.34-42.645-4.637-63.876-3.294-21.231-6.265-44.805-6.4-59.612-.269-29.616 1.091-56.864 2.627-81.994 1.532-25.128 3.217-48.12 4.006-69.25.783-21.129.748-40.251-1.31-58.07-2.06-17.816-8.103-34.94-21.393-52.806-13.29-17.867-32.766-34.402-50.133-54.359-17.367-19.957-28.381-43.047-29.058-64.654-.681-21.608 2.954-41.259.474-68.554-2.485-27.295-25.342-54.64-40.51-81.64-15.165-27-24.957-55.596-31.258-82.535-6.304-26.938-14.39-48.676-23.975-75.02-9.582-26.344-18.414-56.436-21.237-87.532-2.82-31.098-7.997-65.097-12.585-92.834"/>
            <path d="M1231.958 1245.775c9.629-9.16 16.91-15.672 22.55-20.979 5.639-5.308 10.345-9.386 15.606-11.722 5.26-2.338 12.82-3.663 18.69-6.997 5.876-3.332 11.531-9.317 16.091-19.921 4.563-10.602 8.673-22.832 12.881-38.922 2.104-8.045 8.07-49.866 9.8-75.512 1.73-25.643 1.54-52.47-1.475-78.393-3.013-25.923-8.157-50.057-14.958-74.768-6.8-24.714-18.088-44.796-33.345-61.094-15.256-16.294-31.557-27.785-47.26-40.82-15.705-13.033-30.045-28.493-41.08-47.765-11.034-19.273-18.87-41.44-24.203-64.135-5.334-22.695-8.559-46.468-7.631-70.005.927-23.537 7.554-46.363 16.106-66.963 8.558-20.603 18.624-40.68 22.518-62.839 3.895-22.155 1.95-43.751-.622-65.326-2.572-21.573-5.933-47.786-6.005-62.598-.146-29.626 1.04-56.594 2.209-81.267 1.172-24.672 2.224-46.962 2.3-67.346.078-20.383-1.188-38.639-4.311-55.792-3.122-17.153-9.648-33.873-23.879-51.333-14.234-17.461-33.84-34.2-52.091-54.635-18.254-20.437-31.857-44.167-33.927-66.209-2.061-22.043 2.51-46.37-2.522-70.18-5.034-23.809-24.768-54.959-39.977-82.06-15.206-27.1-24.333-57.939-30.082-82.732-5.747-24.795-11.576-49.261-20.072-75.462-8.499-26.2-17.118-56.151-19.434-87.058-2.314-30.906-6.583-64.419-10.96-92.59"/>
            <path d="M1216.185 1240.196c9.665-11.098 16.665-17.458 21.93-24.922 5.268-7.462 8.909-12.546 13.388-15.658 4.483-3.111 10.119-5.166 14.359-8.043 4.242-2.877 7.717-7.536 10.143-14.576 2.423-7.042 4.907-16.49 8.794-28.538 1.942-6.023 7.626-38.325 10.259-64.592 2.635-26.265 3.016-50.804.983-76.44-2.035-25.638-6.466-50.22-12.137-74.963-5.665-24.74-14.534-47.83-27.27-65.316-12.737-17.485-27.755-30.66-42.157-44.413-14.4-13.752-28.06-29.07-38.222-48.148-10.158-19.079-17.835-41.809-22.685-64.755-4.848-22.947-7.654-46.593-7.256-71.239.4-24.644 5.488-47.521 14.037-69.747 8.55-22.224 18.563-40.716 24.676-63.697 6.112-22.98 5.967-44.148 4.36-66.081-1.61-21.934-4.146-43.202-4.973-63.496-1.653-40.585.678-57.383 1.395-81.55.713-24.166 1.16-45.851.114-65.537-1.049-19.685-3.162-37.595-7.85-54.367-4.695-16.773-12.157-33.299-26.9-50.83-14.748-17.532-35.133-34.48-54.197-55.372-19.066-20.893-34.126-45.477-37.983-67.972-3.855-22.494-.574-47.59-5.742-71.802-5.171-24.212-24.098-54.572-39.212-81.708-15.108-27.132-24.336-57.99-28.855-82.908-4.527-24.92-8.668-49.7-15.997-75.607-7.328-25.906-15.786-55.705-17.595-86.413-1.81-30.711-5.08-63.696-9.363-92.534"/>
            <path d="M1200.184 1234.744c9.021-11.826 16.282-19.546 21.313-28.754 5.029-9.207 7.651-14.842 11.16-19.68 3.511-4.838 7.865-8.043 11.054-10.835 3.192-2.788 5.324-7.963 6.414-14.399 1.095-6.433 1.74-16.481 4.198-26.033 1.23-4.778 5.692-27.746 8.596-52.683 2.904-24.939 3.787-49.618 2.46-74.038-1.326-24.42-5.158-49.674-9.96-73.657-4.798-23.984-10.43-47.91-21.948-67.41-11.522-19.502-23.998-32.837-36.581-46.996-12.589-14.16-24.909-29.087-34.505-47.878-9.594-18.788-16.35-41.468-20.42-64.292-4.07-22.823-6.386-47.502-5.833-71.318.554-23.813 4.845-49.072 12.573-70.798 7.732-21.729 19.676-44.223 26.55-64.315 6.876-20.09 9.301-42.966 8.938-64.433-.36-21.47-2.735-42.4-3.557-62.548-1.648-40.295.206-59.179.254-82.851.045-23.675-.39-44.834-2.555-64.176-2.162-19.342-5.944-36.94-12.002-53.73-6.064-16.79-14.98-33.464-30.177-51.108-15.195-17.644-35.347-34.772-55.689-56.11-20.335-21.337-35.727-44.02-41.638-69.049-5.908-25.027-3.44-48.709-8.931-73.3-5.491-24.591-23.61-54.219-38.632-81.454-15.02-27.234-24.467-58-27.784-83.224-3.318-25.225-4.793-49.685-11.674-75.897-6.878-26.213-14.458-55.643-15.633-85.842-1.169-30.195-3.229-62.837-6.883-92.25"/>
            <path d="M1183.674 1230.018c9.409-12.582 16.911-25.99 21.309-33.984 4.402-7.99 6.45-16.488 8.994-22.691 2.544-6.203 5.202-9.656 7.789-14.114 2.587-4.46 3.841-9.85 3.806-16.36-.037-6.51-.028-17.269 1.317-26.588 1.344-9.316 12.677-67.947 11.14-116.26-.766-24.155-3.96-49.118-7.922-72.681-3.962-23.563-8.284-47.907-17.17-68.364-17.77-40.92-44.86-59.746-62.082-95.884-8.611-18.067-14.47-39.087-18.254-61.886-3.784-22.802-5.337-46.481-4.667-70.12.672-23.641 4.026-47.999 11.362-70.315 7.335-22.317 18.875-43.638 26.987-63.998 8.112-20.362 12.547-41.513 13.255-62.45.71-20.936-.991-41.25-1.785-61.149-1.59-39.796-.36-60.815-1.028-84.182-.667-23.368-2.298-44.184-5.682-63.404-3.39-19.22-8.652-36.809-16.382-53.84-7.725-17.03-16.959-33.834-33.106-51.626-16.148-17.791-35.703-34.713-56.643-56.122-20.94-21.407-38.314-44.458-45.784-69.675-7.47-25.215-5.959-48.637-11.735-74.605-5.772-25.97-22.386-53.853-37.282-81.334-14.894-27.481-24.686-58.072-26.784-83.86-2.1-25.787-1.6-50.753-6.813-76.455-5.215-25.703-12.648-55.384-13.283-85.414-.636-30.033-1.321-62.025-4.572-92.257"/>
            <path d="M1165.894 1226.147c10-14.923 18.044-29.48 22.624-39.832 4.582-10.35 6.025-19.02 7.497-26.643 1.472-7.627 2.79-11.642 4.145-16.661 1.353-5.022 2.088-11.503 1.27-18.61-.823-7.111-1.476-19.507-.258-29.133 1.222-9.622 11.389-56.894 11.034-106.616-.178-24.861-2.392-47.628-6.08-71.925-3.692-24.3-6.596-48.267-13.385-68.95-13.58-41.37-37.644-61.944-52.786-96.667-7.57-17.361-12.995-37.54-15.95-59.288-2.955-21.748-4.072-44.955-3.184-68.173.889-23.217 3.719-46.295 10.464-68.987 6.744-22.69 17.326-42.872 26.436-63.375 9.11-20.504 15.68-40.191 17.294-60.607 1.613-20.413.933-40.449.32-59.583-1.226-38.274-.867-62.37-2.343-85.613-1.475-23.242-4.176-44.025-8.986-63.296-4.811-19.272-11.299-37.02-20.36-54.279-9.063-17.26-19.645-34.255-36.194-51.897-16.549-17.64-38.051-36.204-58.056-55.8-20.007-19.594-40.03-44.206-49.13-69.487-9.098-25.278-9.034-49.422-14.899-75.901-5.864-26.478-21.268-53.984-36.043-81.964-14.779-27.978-25.083-58.348-26.1-85.097-1.02-26.747 1.536-52.485-1.89-77.746-3.426-25.26-10.582-54.952-10.708-85.31-.129-30.36.605-61.362-2.128-92.477"/>
            <path d="M1147.65 1224.073c9.478-17.557 17.971-33.652 23.603-46.347 5.635-12.696 7.409-24.432 7.704-32.085.294-7.655 1.174-14.482 1.142-20.206-.037-5.73-.151-12.649-2.082-20.133-1.93-7.484-3.357-19.357-2.63-30.927.723-11.573 10.382-51.189 11.298-98.373.459-23.593-1.219-47.279-4.145-71.007-2.925-23.726-5.574-48.012-10.35-69.343-9.553-42.67-30.744-64.57-43.339-97.624-6.3-16.527-11.416-36.085-13.517-56.76-2.104-20.673-2.645-43.154-1.464-65.862 1.176-22.708 4.078-45.897 10.08-67.454 6.002-21.558 15.427-42.046 25.389-62.674 9.96-20.63 17.343-39.732 20.863-59.27 3.518-19.538 3.205-39.23 2.847-57.86-.712-37.262-1.196-63.421-3.57-86.736-2.379-23.314-6.13-44.218-12.13-63.668-6.002-19.45-14.024-37.406-24.373-54.755-10.35-17.35-22.616-33.788-39.58-51.787-16.968-18-38.917-35.963-59.385-55.178-20.465-19.211-41.606-43.586-52.205-68.754-10.595-25.168-11.974-49.9-17.927-76.844-5.953-26.942-19.746-53.915-34.238-82.327-14.492-28.414-25.269-58.144-25.248-86.058.016-27.915 4.096-51.534 3.257-79.14-.84-27.607-7.881-55.393-7.58-85.663.297-30.275 2.631-60.59.868-92.087"/>
            <path d="M1128.771 1224.024c9.55-19.625 17.823-37.455 23.402-52.982 5.58-15.528 8.802-28.566 9.373-38.596.572-10.028.839-18.063-.032-25.222-.874-7.164-2.186-13.241-4.383-22.904-2.194-9.654-5.392-19.538-5.268-32.886.124-13.35 8.715-45.222 10.396-90.538.842-22.656-.427-46.515-2.758-69.46-2.335-22.94-5.06-47.067-8.19-68.894-6.262-43.653-22.686-68.73-33.86-98.882-5.587-15.079-8.739-33.89-10.537-54.304-1.797-20.412-1.234-41.895.516-63.846 1.75-21.95 4.81-44.453 10.458-65.976 5.652-21.525 14.814-42.772 24.022-61.605 9.21-18.834 18.584-38.35 23.261-57.559 4.676-19.208 5.41-37.857 5.378-55.834-.063-35.953-1.4-63.892-4.564-87.456-3.16-23.563-8.06-44.722-15.204-64.347-7.146-19.623-16.644-37.753-28.343-55.144-11.701-17.391-25.247-33.747-42.985-51.363-17.74-17.615-40-35.414-60.853-54.183-20.854-18.768-42.797-42.45-54.91-67.516-12.114-25.068-14.936-50.102-21.184-77.592-6.25-27.489-18.425-55.206-32.45-83.048-14.023-27.841-25.53-56.972-24.699-87.06.83-30.088 7.132-53.624 8.434-81.04 1.297-27.418-4.535-56.132-3.807-86.379.727-30.246 4.577-59.796 3.778-91.896"/>
            <path d="M1109.59 1225.998c8.664-21.486 16.791-40.485 22.725-58.616 5.933-18.13 8.607-33.243 9.307-45.848.704-12.604 1.291-22.487.561-31.366-.733-8.881-2.624-16.951-4.932-27.336-2.307-10.38-5.985-22.257-5.997-36.343-.011-14.088 7.503-43.034 9.817-84.825 1.157-20.895.233-45.344-1.706-67.324-1.94-21.98-4.85-44.947-6.821-67.61-3.942-45.33-16.477-70.605-25.2-99.945-8.723-29.338-10.038-70.89-5.523-113.056 2.256-21.08 5.603-42.514 10.902-63.71 5.3-21.193 13.312-41.535 22.338-60.509 18.048-37.947 31.262-74.454 32.05-108.995.788-34.54-1.083-63.752-4.97-87.67-3.885-23.915-9.851-45.379-18.136-65.195-8.288-19.818-18.984-37.994-32.084-55.382-13.1-17.39-28.096-33.682-46.604-50.787-18.51-17.104-41.163-34.576-62.507-52.825-21.342-18.25-44.003-41.139-57.339-65.728-13.328-24.588-17.213-49.61-23.93-77.61-6.722-28.002-17.524-55.785-30.834-83.936-13.301-28.149-25.732-55.86-24.41-87.722 1.322-31.864 9.856-56.117 13.374-83.325 3.52-27.207-.55-56.766.675-86.88 1.223-30.116 6.362-59.799 6.74-91.483"/>
            <path d="M1090.608 1230.219c7.987-23.068 15.347-43.144 20.565-63.462 5.215-20.324 8.261-36.843 9.006-52.13.744-15.29 1.032-27.4-.32-38.422-1.353-11.02-2.532-20.666-4.796-32.682-2.26-12.017-5.241-25.736-4.963-41.034.274-15.3 7.316-43.326 10.324-81.866 1.504-19.272 1.217-42.352-.575-65.03-1.792-22.676-4.44-43.865-5.866-66.046-2.855-44.363-11.027-72.164-17.384-100.567-6.357-28.4-6.567-67.143-1.315-107.444a587.955 587.955 0 0 1 11.22-61.072c4.944-20.699 11.932-39.88 20.648-58.745 17.435-37.733 32.731-71.435 34.858-105.052 2.129-33.615.09-63.283-4.454-87.634-4.547-24.35-11.388-46.103-20.788-66.113-9.401-20.01-21.35-38.259-35.742-55.551-14.395-17.294-30.862-33.453-50.331-50.027-19.468-16.575-42.536-33.409-64.099-50.862-21.566-17.451-44.851-39.339-59.399-63.248-14.541-23.907-20.945-49.64-27.12-77.119-6.169-27.477-16.906-56.478-29.51-85.075-12.608-28.596-24.699-61.409-24.086-89.556.616-28.146 12.662-57.73 17.81-85.427 5.148-27.698 3.858-57.924 5.613-87.875 1.757-29.954 7.578-60.892 9.562-91.353"/>
            <path d="M1071.532 1236.106c7.438-24.02 14.55-46.11 18.61-66.836 4.062-20.728 6.917-39.787 6.768-57.245-.152-17.456-1.28-31.94-2.107-44.423-.835-12.483-3.11-24.848-5.581-38.657-2.472-13.808-5.632-28.798-5.222-46.334.415-17.536 6.814-35.164 11.833-79.866 2.51-22.351 2.407-41.693 1.152-63.45-1.254-21.757-3.776-43.064-4.669-64.928-1.793-43.73-5.998-73.327-9.975-101.18-3.973-27.847-2.822-63.17 3.078-102.575 2.947-19.702 7.172-39.197 12.256-58.472 5.083-19.278 11.656-38.975 19.644-56.82 15.97-35.687 33.647-69.024 37.374-101.674 3.73-32.648 2.27-62.92-2.845-87.75-5.11-24.83-12.804-46.913-23.205-67.084-10.405-20.171-23.517-38.433-39.22-55.597-15.705-17.165-33.69-33.056-53.936-48.878-20.244-15.822-44.056-31.828-66.06-48.31-21.999-16.483-45.013-37.091-60.425-59.985-15.412-22.894-23.02-49.133-29.73-76.032-6.705-26.9-16.62-57.134-28.643-86.298-12.026-29.164-24.373-61.374-24.07-91.43.307-30.057 13.568-58.95 21.45-87.97 7.885-29.02 8.623-59.3 10.86-89.417 2.233-30.113 8.744-61.181 12.02-91.837"/>
            <path d="M1053.31 1243.176c6.64-24.239 12.586-46.82 15.94-68.707 3.354-21.89 4.738-42.422 4.125-60.77-.61-18.349-3.257-34.97-5.322-49.103-2.07-14.134-5.203-27.94-8.526-43.092-3.33-15.152-6.523-31.77-6.32-50.755.198-18.987 6.138-36.434 12.396-79.387 3.13-21.475 3.801-42.176 3.151-63.238-.653-21.06-2.713-43.225-3.2-64.31-.968-42.168-1.313-74.636-2.447-102.084-1.133-27.45 1.384-60.782 8.772-98.314 7.39-37.53 17.844-76.275 33.533-111.876 15.69-35.602 34.754-67.587 39.825-99.734 5.07-32.144 4.943-62.882-.62-88.205-5.561-25.322-13.988-47.714-25.345-68.034-11.36-20.32-25.63-38.533-42.41-55.382-16.782-16.85-36.334-32.334-57.623-47.28-21.293-14.948-45.184-29.646-67.453-45.088-22.268-15.443-45.44-34.824-61.416-57.01-15.976-22.187-24.745-49.212-31.718-75.53-6.971-26.316-16.624-57.595-28.147-87.272-11.528-29.674-23.974-60.776-24.418-92.773-.446-31.997 13.782-60.897 23.845-90.406 10.058-29.51 14.484-58.997 16.92-90.849 2.439-31.852 9.638-61.923 14.182-92.725"/>
            <path d="M1035.595 1251.108c5.929-24.003 11.72-46.143 14.062-68.707a334.898 334.898 0 0 0 .52-63.238c-1.67-19.207-5.738-36.787-9.228-52.088-3.488-15.303-7.773-30.114-12.077-46.168-4.294-16.054-8.62-33.832-9.22-53.713-.594-19.88 4.305-38.103 11.613-79.065 3.652-20.48 5.097-42.886 5.029-63.464-.069-20.578-1.732-43.128-1.65-64.29.166-42.322 3.147-76.393 5.103-104.014 1.954-27.622 6.434-59.799 15.747-96.143 9.316-36.348 20.76-73.885 36.383-109.595 15.624-35.714 34.812-67.63 41.856-99.178 7.042-31.548 7.675-63.363 1.765-89.173-5.912-25.808-15.018-48.489-27.15-68.848-12.127-20.356-27.494-38.412-45.416-54.819-17.917-16.405-38.426-31.04-60.675-45.157-22.25-14.115-46.622-28.01-68.94-42.822-22.313-14.81-44.313-31.597-61.578-54.493-17.271-22.894-26.438-49.505-33.445-75.117-7.006-25.612-16.801-57.77-27.944-87.68-11.142-29.909-23.273-59.396-24.86-93.322-1.59-33.927 13.08-62.68 24.965-92.931 11.88-30.253 19.798-60.54 23.199-92.162 3.4-31.624 10.242-62.788 15.994-93.621"/>
            <path d="M1018.594 1259.492c5.657-23.873 10.806-45.185 12.4-67.468 1.597-22.284 1.067-43.277-1.919-62.983-2.984-19.709-8.619-38.06-13.88-54.278-5.266-16.22-10.996-31.58-16.774-48.145-5.78-16.562-11.3-34.902-12.936-55.25-1.63-20.345 1.91-39.106 10.012-78.72 4.05-19.807 6.255-43.418 6.64-64.054.38-20.635-.84-43.32-.25-64.764 1.173-42.894 7.208-78.467 12.137-106.909 4.933-28.444 11.823-60.076 23.266-95.848 11.44-35.769 24.605-73.706 40.293-108.38 15.686-34.671 34.995-67.442 43.047-99.491 8.055-32.053 9.67-64.976 3.548-91.213-6.124-26.238-15.783-49.119-28.66-69.414-12.872-20.292-28.964-37.927-47.822-53.825-18.858-15.895-40.32-30.086-63.452-43.751-23.126-13.664-47.912-26.813-70.245-41.054-22.331-14.243-43.04-29.887-59.734-52.244-16.693-22.355-27.258-50.1-34.23-74.632-6.977-24.532-16.177-57.328-27.122-87.512-10.948-30.182-22.24-57.316-26.204-93.043-3.963-35.73 9.777-65.604 23.238-95.195 13.457-29.592 24.945-62.258 29.405-93.468 4.463-31.212 10.826-63.375 17.567-94.3"/>
            <path d="M1002.555 1267.921c4.716-23.642 9.098-44.19 10.436-66.026 1.335-21.836.102-41.876-3.773-60.843-3.875-18.965-10.547-36.88-16.972-52.947-6.426-16.067-13.75-31.457-21.042-48.324-7.293-16.868-14.15-35.507-16.904-56.117-2.75-20.611-.573-39.567 7.765-78.648 4.172-19.541 6.804-40.424 7.49-64.8.684-24.376-.113-43.835.629-66.215 1.479-44.762 11.094-80.358 18.446-110.334 7.354-29.978 17.256-61.123 30.804-96.71 13.544-35.585 28.301-73.1 44.014-108.504 15.713-35.405 34.002-68.764 42.497-101.83 8.5-33.066 10.676-67.285 4.43-93.858-6.248-26.572-16.264-49.481-29.702-69.62-13.435-20.14-30.218-37.53-49.844-53.173-19.623-15.643-42.005-29.5-65.677-42.722-23.675-13.223-48.714-26.195-69.448-40.156-20.737-13.96-38.36-28.65-54.5-50.079-16.14-21.429-27.693-45.354-36.3-72.502-8.61-27.147-15.578-56.784-25.885-87.46-10.304-30.677-21.1-62.218-25.252-94.012-4.153-31.797 4.424-66.437 17.284-96.997 12.863-30.557 27.255-63.392 32.813-93.748 5.566-30.355 12.15-63.342 19.482-94.2"/>
            <path d="M986.948 1276.468c4.169-25.093 8.05-46.77 8.394-68.492.341-21.721-1.677-40.754-7.092-59.962-5.416-19.208-12.843-36.16-20.54-51.135-7.695-14.98-17.4-30.688-25.38-48.109-7.982-17.421-15.577-37.515-16.322-58.775-.743-21.26 8.988-56.594 13.464-98.258 2.238-20.832 2.439-47.573 2.506-71.267.065-23.693 1.07-47.66 4.928-69.441 7.715-43.554 18.543-75.118 29.727-107.452 5.59-16.165 12.996-35.187 20.56-54.216 7.558-19.028 15.632-38.587 23.792-58.07 8.163-19.486 16.333-38.98 24.474-58.308 8.143-19.327 16.31-38.014 23.97-56.31 15.323-36.592 25.336-72.192 26.677-105.688 1.344-33.498-4.972-63.043-15.945-86.959-10.974-23.916-26.132-44.236-44.685-62.086-18.552-17.85-41.017-33.2-65.587-47.136-24.572-13.936-50.107-26.796-72.516-40.126-22.401-13.33-41.21-27.107-56.552-44.279-15.343-17.173-32.111-42.58-43.893-70.07-11.78-27.488-17.746-54.91-26.908-86.931-9.16-32.022-20.819-65.98-26.608-98.705-5.79-32.724-5.096-68.267 7.427-102.922 12.525-34.653 26.203-64.91 34.678-98.618 8.486-33.704 12.27-67.551 20.458-99.701"/>
            <path d="M974.106 1285.647c2.04-26.154 3.592-48.357 3.145-70.12-.447-21.764-3.168-39.855-9.373-57.827-6.204-17.974-14.487-33.378-22.869-46.944-8.381-13.563-18.787-28.015-27.184-44.162-8.397-16.145-16.274-35.142-16.984-55.25-.714-20.109 8.849-55.291 13.059-97.206 2.106-20.956 2.208-48.554 2.217-72.686.012-24.132.975-48.881 5.116-71.454 4.146-22.57 10.133-42.525 15.907-61.186 5.776-18.662 12.135-35.445 18.596-52.636 6.459-17.188 14.477-36.862 22.676-56.651 8.2-19.79 16.698-40.044 25.168-60.16 8.474-20.114 16.926-40.191 24.853-60.047 7.928-19.855 15.75-39.179 22.923-58.109 14.35-37.86 23.848-73.908 25.322-107.49 1.469-33.582-4.75-63.13-15.829-87.093-11.07-23.964-26.655-44.383-47.079-61.25-20.425-16.867-43.195-30.936-66.851-44.26-23.663-13.323-48.808-25.546-69.548-38.827-20.74-13.282-37.733-26.808-51.799-43.349-14.065-16.538-29.148-41.928-41.72-68.412-12.58-26.483-18.933-52.224-27.822-85.956-8.891-33.729-19.03-66.416-24.866-100.065-5.836-33.648-6.462-71.197 3.356-104.2 9.814-33.001 25.33-66.516 34.456-98.954 9.129-32.438 12.558-67.543 20.044-100.204"/>
            <path d="M962.607 1295.754c.645-27.304 1.152-51.22-1.4-73.51-2.552-22.291-6.918-40.746-14.516-58.099-7.598-17.35-15.634-30.498-26.074-44.095-10.441-13.596-20.32-25.757-29.227-40.595-8.903-14.839-17.068-32.538-17.782-51.47-.718-18.93 8.976-53.933 12.9-96.106 1.963-21.087 1.943-49.194 1.91-73.625-.031-24.433.947-49.74 5.33-72.934 4.382-23.194 10.905-43.921 17.54-63.78 6.631-19.86 13.759-37.84 21.011-56.141 7.25-18.302 15.864-38.78 24.644-59.388 8.779-20.608 17.678-41.498 26.43-62.138 8.75-20.64 17.262-41.281 25.287-61.43 8.023-20.148 15.654-40.01 22.363-59.048 13.422-38.08 22.301-74.227 23.735-107.134 1.431-32.906-5.003-62.454-17.854-85.494-12.861-23.038-30.006-41.268-49.666-57.098-19.657-15.83-41.709-29.305-64.154-42.367-22.442-13.064-46.724-25.289-66.287-38.326-19.569-13.037-34.54-26.503-46.743-43.008-12.2-16.505-25.1-41.415-38.008-67.366-12.908-25.948-20.419-50.952-28.95-84.958-8.53-34.005-17.715-67.235-23.685-101.876-5.97-34.642-8.236-69.736.097-104.821 8.331-35.086 22.708-65.375 32.551-99.51 9.837-34.137 13.428-67.61 20.33-100.253"/>
            <path d="M951.848 1311.507c-.399-30.384-1.41-57.922-5.748-82.497-4.072-23.023-10.3-42.571-19.44-60.249-9.142-17.677-19.286-31.237-31.033-44.5-11.748-13.265-22.914-25.086-32.69-39.35-9.772-14.269-18.464-31.276-19.45-49.728-.988-18.45 8.75-53.501 12.33-95.742 1.79-21.12 1.61-49.235 1.598-73.688-.01-24.451 1.125-49.966 5.83-73.433 4.7-23.467 11.924-44.77 19.433-65.473 7.511-20.706 15.518-39.592 23.61-58.712 8.096-19.119 17.458-40.167 26.883-61.278 9.424-21.112 18.82-42.27 27.897-63.082 9.079-20.814 17.974-41.357 26.106-61.377 8.134-20.022 15.608-39.594 21.953-58.484 12.684-37.783 19.558-72.801 19.187-103.88-.374-31.076-8.19-58.92-20.664-80.252-12.474-21.331-29.098-38.418-47.812-53.555-18.713-15.137-39.773-28.304-61.132-41.228-21.358-12.923-44.227-25.523-62.469-38.475-18.242-12.95-31.304-26.548-41.526-43.148-10.227-16.6-20.43-40.985-33.196-66.745-12.764-25.76-21.362-49.154-29.9-83.896-8.535-34.744-17.188-70.973-22.495-105.032-5.302-34.059-9.277-67.881-2.929-105.172 6.347-37.29 19.667-67.01 29.667-99.729 9.994-32.719 15.085-67.206 20.874-99.808"/>
            <path d="M943.242 1326.404c-1.858-30.599-4.898-59.964-10.57-85.525-5.672-25.564-14.126-47.929-25.143-67.259-11.01-19.332-23.035-33.677-36.194-47.37-13.154-13.697-25.831-26.215-36.633-40.962-10.81-14.749-20.142-32.214-21.574-51.393-1.43-19.177 8.273-54.905 11.25-97.203 1.489-21.15 1.013-48.803 1.033-72.996.024-24.192 1.459-49.513 6.603-72.726 5.148-23.216 13.091-44.613 21.422-65.536 8.328-20.923 17.186-40.186 26.108-59.605 8.926-19.418 19.06-40.67 29.117-61.86 10.06-21.19 19.96-42.213 29.373-62.834 9.417-20.62 17.827-40.307 25.244-59.445 7.417-19.138 13.827-37.652 19.044-55.45 10.43-35.597 16.056-68.29 15.56-97.569-.492-29.277-8.167-55.46-20.204-75.419-12.039-19.955-27.945-36.209-45.78-50.832-17.83-14.626-37.636-27.663-57.647-40.635-20.01-12.973-41.535-25.573-58.407-39.166-16.874-13.595-27.452-27.771-35.78-44.445-8.332-16.671-15.647-41.016-27.758-66.371-12.114-25.358-24.962-51.916-31.592-82.828-6.631-30.91-15.962-71.956-20.849-107.837-4.887-35.883-7.914-73.31-4.24-107.606 3.674-34.296 15.544-67.444 25.493-100.043 9.942-32.597 16.55-64.698 21.244-97.806"/>
            <path d="M935.58 1339.414c-3.06-32.138-7.981-65.23-15.807-92.028-7.829-26.795-19.629-51.104-32.652-71.48-13.019-20.376-28.66-37.205-43.524-52.767-14.87-15.56-29.805-31.254-41.618-49.104-11.813-17.848-18.443-39.716-17.812-60.488.313-10.384 3.638-29.896 6.96-53.032 3.326-23.136 3.97-49.2 3.602-72.494-.37-23.296-1.224-49.998 2.088-75.022 3.311-25.023 11.648-49.4 20.565-71.687 8.92-22.287 18.743-43.085 28.643-63.252 9.9-20.166 19.955-40.485 30.537-62.02 10.586-21.533 20.726-42.657 30.102-63.205 9.376-20.551 17.982-40.528 25.595-59.798 15.218-38.539 26.284-74.254 31.577-106.47 5.292-32.217 4.841-60.934-2.673-85.92-7.515-24.987-21.115-43.277-36.835-59.798-15.725-16.522-34.09-30.77-53.277-44.659-19.193-13.884-38.252-27.975-56.494-43.467-18.242-15.49-32.924-29.375-41.746-45.91-8.82-16.532-12.762-35-21.934-60.7-9.179-25.697-25.9-56.264-35.172-84.358-9.273-28.095-16.157-71.016-22.173-109.618-6.01-38.606-8.308-75.083-7.145-115.373 1.158-40.29 11.052-74.07 20.732-107.927 9.68-33.857 18.878-67.227 23.026-100.588"/>
            <path d="M927.928 1348.518c-4.406-34.585-10.147-64.492-20.047-92.991-9.903-28.5-22.804-53.148-37.169-73.892-14.363-20.747-31.627-38.81-47.136-55.687-15.507-16.879-31.162-34.72-43.109-54.36-11.945-19.64-17.974-42.598-17.702-65.645.137-11.523 4.11-32.747 7.055-56.91 2.946-24.162 2.942-47.554 2.549-70.77-.392-23.221-.84-48.934 2.788-73.057 3.626-24.125 12.111-47.985 20.694-69.37 8.582-21.386 18.116-41.56 27.576-61.008 9.458-19.449 19.134-39.143 29.184-59.753 10.05-20.608 19.652-40.75 28.5-60.282 8.846-19.53 16.94-38.451 24.03-56.65 14.194-36.4 24.356-69.872 29.021-99.89 4.666-30.018 3.815-56.598-3.739-79.681-7.56-23.078-20.528-40.709-35.34-56.717-14.814-16.01-31.168-30.663-47.772-45.811-16.6-15.15-34.155-30.146-51.271-46.554-17.12-16.406-31.018-31.845-38.6-48.5-7.58-16.655-9.596-33.812-16.23-59.62-6.633-25.806-22.467-52.824-33.49-82.864-11.022-30.042-16.379-68.722-22.269-109.116a621.258 621.258 0 0 1-5.779-59.353c-.93-19.201-1.205-39.252-.69-58.219 1.037-37.932 8.22-78.234 17.202-111.725 8.983-33.493 19.707-68.146 23.839-99.847"/>
            <path d="M919.263 1353.565c-5.269-33.669-12.803-65.108-24.152-93.559-11.352-28.45-25.89-53.347-41.36-74.39-15.469-21.043-33.368-39.82-50.126-58.598-16.758-18.78-32.08-38.318-44.006-59.777-11.932-21.457-17.265-45.402-17.403-70.877-.065-12.736 4.867-35.663 7.256-61.084 2.394-25.423 1.707-45.033 1.303-68.044-.4-23.011-.51-46.539 3.762-70.42 4.272-23.883 12.713-46.102 20.926-66.352 8.217-20.25 17.487-39.7 26.46-58.294 8.979-18.59 18.303-37.65 27.777-57.21 9.473-19.56 18.488-38.608 26.762-57.014 8.273-18.404 15.807-36.167 22.371-53.196 13.135-34.058 22.317-65.169 26.239-92.936 3.922-27.767 2.585-52.204-5.111-73.406-7.699-21.203-19.346-38.623-31.69-55.558-12.345-16.934-27.07-32.445-42.768-48.384-15.695-15.941-32.35-32.565-48.419-50.375-16.07-17.808-29.09-34.734-35.444-51.222-6.358-16.487-6.806-31.805-10.637-57.512-3.835-25.708-19.41-53.418-30.24-80.817-10.832-27.402-16.861-64.4-22.692-106.177-2.916-20.89-5.192-41.111-5.975-61.327-.782-20.215-.83-39.467-.29-59.401 1.083-39.869 5.712-79.298 14.492-114.588 8.78-35.29 17.475-67.086 23.953-99.822"/>
            <path d="M909.718 1354.69c-6.49-33.962-16.98-68.138-30.44-97.297-13.461-29.155-30.42-54.603-48.622-77.09-18.205-22.484-37.512-42.246-54.488-63.764-16.974-21.519-33.37-44.157-43.23-69.829-9.857-25.67-12.537-51.33-6.511-92.388 3.01-20.53 4.426-42.687 4.236-68.791-.19-26.104-1.458-46.77.828-70.995 2.284-24.225 8.32-46.344 16.51-68.079 8.189-21.738 16.947-41.285 25.912-60.098 8.97-18.813 17.818-36.867 27.404-56.494 9.585-19.627 18.667-38.699 27.008-57.061 16.691-36.732 30.321-70.602 39.091-101.025 8.765-30.426 12.538-57.427 10.318-80.967-2.22-23.542-8.732-45.946-18.73-65.283-10.009-19.33-23.25-36.8-38.07-54.88-14.813-18.079-31.241-36.557-47.206-55.726-15.962-19.172-33.362-38.335-42.165-56.545-8.8-18.208-9.591-34.966-10.144-54.775-.552-19.808-6.012-50.027-19.374-78.08-13.356-28.056-21.927-53.507-28.288-98.408-3.18-22.45-6.087-44.413-7.792-65.962-1.701-21.55-1.95-43.157-1.48-63.985.469-20.827 1.345-42.11 3.03-63.556 1.684-21.443 4.767-41.581 8.528-60.345 7.526-37.53 18.537-73.219 25.356-105.983"/>
            <path d="M898.46 1352.155c-8.18-35.291-19.775-67.543-34.637-95.98-14.864-28.439-33.605-53.969-52.306-76.496-18.699-22.527-38.269-43.805-55.682-66.939-17.416-23.132-33.273-47.335-42.405-74.888-9.132-27.551-9.711-53.952-4.627-97.988 2.546-22.02 2.713-45.18 2.264-66.752-.45-21.569-1.334-44.895 1.548-67.674 2.885-22.776 9.713-44.18 17.521-64.353 7.806-20.174 16.29-38.69 24.824-56.415 8.535-17.724 17.05-35.19 26.019-53.609 8.97-18.417 17.473-36.234 25.22-53.339 15.497-34.21 27.646-65.563 35.31-93.548 7.66-27.984 12.998-54.269 12.042-77.568-.96-23.296-8.86-44.117-18.835-64.276-9.976-20.16-23.07-39.483-37.189-58.99-14.122-19.506-29.415-38.813-44.158-58.4-14.75-19.586-30.683-39.519-38.696-57.181-8.012-17.665-7.439-34.115-5.938-53.408 1.498-19.292.144-47.778-12.252-74.878-12.396-27.101-22.479-47.388-28.908-91.642-3.213-22.127-5.977-44.599-7.99-66.79-2.01-22.192-2.255-43.177-1.944-64.692.315-21.515 2.028-40.76 3.267-63.175 1.243-22.416 3.59-42.256 7.005-62.544 6.83-40.578 17.032-73.694 24.74-107.395"/>
            <path d="M885.48 1346.232c-9.502-33.43-22.817-64.658-39.277-93.117-16.465-28.457-34.687-52.145-54.766-75.772-20.08-23.626-39.008-45.668-56.143-70.173-17.126-24.508-32.752-50.207-40.966-79.502-8.208-29.294-6.44-55.725-2.727-103.037 1.854-23.658.978-41.77.416-63.092-.558-21.322-1.04-42.116 2.662-64.16 3.705-22.042 10.805-41.818 18.195-60.402 7.39-18.585 15.643-36.122 23.636-52.746 15.985-33.252 32.927-68.042 47.863-100.27 14.936-32.226 27.181-61.793 35.226-88.762 8.04-26.965 11.914-51.175 10.252-74.225-1.657-23.05-10.38-45.391-20.362-66.72-9.982-21.332-22.366-41.65-35.617-61.495-13.26-19.843-27.411-39.36-40.77-58.633-13.365-19.273-27.419-39.319-34.697-56.216-7.274-16.899-5.692-33.242-2.342-52.255 3.346-19.014 6.055-45.839-4.937-72.487-10.993-26.649-22.439-40.88-29.348-84.251-3.457-21.687-5.786-44.18-7.973-66.665-2.182-22.485-3.442-44.08-2.912-65.706.529-21.628 1.758-42.169 3.4-63.311 1.642-21.143 3.449-43.437 6.147-62.952 5.4-39.03 15.043-75.993 23.49-109.736"/>
            <path d="M870.412 1338.848c-11.252-33.96-27.759-66.605-46.21-95.131-18.453-28.523-40.084-53.075-60.81-77.762-20.723-24.688-40.419-50.18-57.34-77.92-16.918-27.742-29.686-59.7-34.767-90.109-2.54-15.204-2.378-35.197-.093-54.642 2.282-19.444 3.093-40.086 2.512-64.075-.583-23.987-1.84-42.624-.17-63.894 1.67-21.27 6.79-41.21 14.272-61.066 14.96-39.71 31.242-69.914 48.765-104.73 17.524-34.818 33.347-67.175 45.383-96.905 12.04-29.73 20.12-56.963 22.986-82.963 2.869-26 .422-50.873-8.212-75.513-8.64-24.64-19.485-46.912-31.63-68.19-12.154-21.276-25.353-41.48-38.18-60.821-12.82-19.344-25.191-40.396-35.36-58.184-10.168-17.79-14.021-35.486-10.478-54.503 3.534-19.015 12.217-37.793 8.628-67.977-3.587-30.185-23.12-55.925-30.678-84.73-3.776-14.402-6.429-34.374-9.116-58.189-2.688-23.815-4.7-46.757-5.282-69.546-.578-22.79.56-45.646 2.155-67.516a1879.667 1879.667 0 0 1 6.054-66.507 756.816 756.816 0 0 1 9.503-62.699c3.793-19.484 8.48-37.763 12.808-55.52"/>
            <path d="M853.477 1329.224c-13.006-33.294-31.326-63.915-50.49-90.875-19.167-26.958-41.602-52.193-61.919-77.353-20.317-25.16-39.97-52.287-56.245-81.155-16.27-28.869-27.147-60.76-31.86-93.018-2.36-16.13.16-35.462 2.008-56.5 1.85-21.042 1.449-41.528.762-61.333-.685-19.802-1.38-40.862 1.082-60.682 2.467-19.82 8.675-39.121 15.928-57.368 14.5-36.499 30.77-65.872 47.14-98.752 16.379-32.88 30.873-63.563 41.529-92.484 10.655-28.92 17.426-56.155 19.261-82.554 1.826-26.396-1.341-51.785-10.362-76.928-9.025-25.142-18.98-46.519-29.853-66.345-10.873-19.826-22.386-37.857-33.092-55.633-10.706-17.778-21.365-34.913-29.745-55.382-8.378-20.47-12.443-37.172-8.616-56.15 3.828-18.976 13.782-39.423 13.283-66.928-.504-27.5-18.299-54.995-27.99-84.973-4.845-14.99-6.86-28.144-9.564-51.125-2.706-22.981-4.783-46.25-5.884-69.382-1.104-23.132-.18-44.97 1.277-67.287 1.456-22.318 3.947-44.26 6.208-65.448 2.26-21.186 4.801-43.183 8.383-64.084 3.58-20.903 7.746-39.41 12.038-57.102"/>
            <path d="M833.406 1318.437c-14.582-31.457-33.248-60.023-53.563-86.79-20.313-26.77-41.762-50.484-61.927-76.793-20.167-26.31-38.912-53.858-54.206-83.62-15.296-29.761-24.338-61.375-28.58-95.328-4.241-33.955 4.401-76.46 3-115.549-1.399-39.088 5.328-77.538 19.143-111.292 13.815-33.754 29.502-62.84 44.692-94.475 15.193-31.632 28.28-61.53 37.655-90.099 9.374-28.567 15.016-55.712 15.907-82.023.884-26.312-2.892-52.04-11.737-76.513-8.85-24.472-17.807-42.583-26.446-60.04-8.643-17.453-18.118-32.985-26.736-49.895-8.616-16.916-17.801-33.853-25.121-54.919-7.322-21.063-11.595-40.127-7.814-59.252 3.781-19.122 13.834-37.842 16.714-66.505 2.88-28.665-14.217-57.73-24.08-84.99-9.871-27.256-13.778-67.057-16.685-112.967-1.452-22.955-1.777-45.107-.241-67.326 1.532-22.217 3.883-43.057 6.413-64.787 2.53-21.732 4.755-44.17 7.792-64.321 3.037-20.151 6.468-39.316 10.825-57.963"/>
            <path d="M811.56 1306.441c-16.875-31.11-38.638-60.138-60.096-86.701-21.463-26.565-44.491-52.525-64.316-80.97-19.82-28.445-39.116-58.71-51.977-91.835-12.868-33.122-18.89-68.83-15.46-106.365 1.714-18.769 1.95-41.283 1.205-59.885-.748-18.605-2.003-38.726-.742-57.545 2.52-37.638 19.677-75.205 34.423-106.757 14.746-31.552 30.669-64.286 43.395-95.563 12.725-31.278 22.284-60.872 27.318-89.401 5.037-28.53 5.846-55.798 1.912-81.046-3.935-25.247-13.973-48.896-20.725-65.61-6.754-16.712-13.662-32.39-21.378-48.832-7.72-16.436-15.544-34.618-23.49-55.173-7.947-20.56-17.799-43.592-17.126-66.163.677-22.572 10.392-43.194 17.5-66.984 7.114-23.792 4.527-59.654-9.086-88.798-13.613-29.145-19.722-54.96-23.519-103.374-1.897-24.208-2.982-47.541-2.668-70.614.317-23.07 2.477-46.178 5.219-68.34 2.738-22.163 5.78-44.2 8.713-66.829 2.937-22.63 6.11-43.293 10.071-63.035"/>
            <path d="M788.105 1293.961c-18.652-29.83-41.019-56.823-62.305-82.342-21.285-25.516-43.738-52.098-63.057-80.75-19.322-28.654-37.28-59.136-48.551-92.603-11.262-33.47-13.769-65.713-11.352-106.171 2.418-40.456-4.073-77.457-.655-113.172 3.414-35.714 20.102-71.804 33.883-102.38 13.784-30.575 28.357-62.752 39.834-93.227 11.48-30.473 19.87-59.396 24.475-86.3 4.607-26.904 5.378-51.618 2.705-73.688-2.67-22.074-10.132-42.15-14.744-57.087-4.615-14.938-10.269-29.978-16.83-47.016-6.556-17.043-13.983-35.745-21.361-57.383-7.382-21.635-16.544-47.235-16.792-70.32-.25-23.085 9.58-44.89 18.27-69.337 8.685-24.446 11.564-59.024-1.227-88.474-12.795-29.449-22.5-49.223-26.234-95.284-1.867-23.03-2.974-46.5-3.108-69.782-.134-23.283 1.459-45.854 3.937-67.626 2.477-21.77 5.842-43.912 9.052-65.229 3.215-21.318 6.201-44.008 9.59-63.311"/>
            <path d="M763.656 1281.516c-19.642-27.898-42.025-52.934-63.996-78.338-21.97-25.406-42.749-51.413-61.172-80-18.426-28.587-35.37-59.745-44.986-91.994-9.617-32.25-8.74-73.07-8.525-105.656.214-32.589-5.82-73.507-1.54-108.808 4.276-35.302 19.887-69.09 32.611-98.87 12.73-29.78 26.32-61.261 36.91-90.075 10.593-28.816 18.465-55.483 23.486-79.437 5.022-23.954 7.3-45.138 6.581-64.442-.713-19.31-6.09-37.051-9.592-51.781-3.5-14.732-8.755-30.02-14.846-47.867-6.094-17.843-13.095-37.989-20.24-60.702-7.142-22.716-15.42-51.095-16.677-74.736-1.258-23.639 8.293-46.72 18.483-71.869 10.183-25.146 18.488-58.013 7.382-88.168-11.11-30.155-27.347-56.077-28.807-88.878-.732-16.402-2.88-44.291-3.25-67.078-.374-22.787.205-45.02 2.571-67.156 2.367-22.136 5.736-42.576 8.886-64.005 3.148-21.429 6.69-42.777 10.06-63.065"/>
            <path d="M738.249 1270.026c-21.598-27.716-46.338-52.998-68.734-78.97-22.399-25.972-43.349-54.147-61.473-84.41-18.126-30.266-32.461-64.507-39.306-97.305-6.84-32.8-1.736-70.261-4.004-112.326-2.272-42.064-5.32-73.7 5.64-109.427 10.954-35.725 23.95-64.408 37.41-95.546 13.458-31.135 25.324-59.684 34.369-84.754 9.051-25.072 16.688-48.348 20.409-68.087 3.717-19.733 5.136-38.956 2.004-56.42-3.133-17.457-6.886-32.284-12.287-50.327-5.402-18.034-12.506-38.279-19.655-61.821-7.152-23.545-13.978-54.448-19.603-81.235-5.622-26.791-3.42-53.652 7.442-80.425 10.858-26.77 26.918-52.02 25.486-87.937-1.43-35.916-24.453-63.556-30.905-93.92-3.227-15.183-4.36-35.208-5.18-59.068-.822-23.862-.732-47.137.719-69.952 1.452-22.815 4.861-45.528 8.477-67.543 3.61-22.013 7.55-42.395 11.134-64.407"/>
            <path d="M712.607 1259.463c-22.092-25.622-47.178-50.337-68.977-75.431-21.8-25.095-42.118-53.056-59.302-82.406-17.183-29.35-29.946-62.069-36.03-94.088-6.087-32.016-1.52-74.835-4.18-110.158-2.657-35.323-4.366-70.363 6.181-103.809 10.546-33.446 23.29-60.532 36.774-89.064 13.484-28.53 25.47-53.518 35.763-76.61 10.294-23.095 18.058-43.415 22.85-61.896 4.787-18.475 6.802-35.798 4.69-52.936-2.113-17.131-7.003-32.727-12.632-51.925-5.632-19.197-12.689-40.903-19.77-65.83-7.078-24.93-13.959-53.567-18.618-85.583-4.65-32.02-4.036-58.32 6.624-85.2 10.662-26.884 28.644-54.35 31.883-87.288 3.24-32.94-17.646-63.745-27.231-95.162-4.793-15.706-6.05-28.924-6.846-51.373-.8-22.446-.682-45.602.306-68.394.985-22.788 3.681-45.242 7.188-66.531 3.503-21.288 7.946-42.335 11.861-63.098"/>
            <path d="M687.529 1249.562c-23.204-24.845-47.242-47.325-69.148-71.678-21.903-24.352-41.08-51.065-57.663-79.36-16.582-28.296-28.206-58.989-33.846-89.712-5.634-30.723-1.395-71.977-3.731-106-2.336-34.02-2.779-66.48 7.809-97.52 10.583-31.037 23.56-56.22 37.043-82.255 13.48-26.036 25.962-49.005 36.48-69.95 10.522-20.95 18.965-39.649 24.256-57.21 5.293-17.563 7.4-33.767 5.765-50.75-1.636-16.978-7.405-33.753-13.429-54.214-6.023-20.463-13.226-43.797-20.208-70.255-6.981-26.459-13.4-56.628-17.352-89.998-3.959-33.37-4.18-63.668 6.302-90.63 10.478-26.958 28.658-51.845 37.498-86.842 8.835-34.998-10.384-67.66-20.533-96.36-10.145-28.702-11.175-66.522-9.374-110.728.899-22.103 2.597-43.96 5.886-65.398 3.292-21.439 7.653-42.224 12.13-62.15"/>
            <path d="M663.078 1241.043c-25.006-24.617-51.042-46.575-73.286-71.778-22.25-25.205-42.3-52.167-58.207-81.056-15.904-28.888-28.377-55.404-28.769-91.449-.393-36.043-.994-74.23-1.63-107.755-.637-33.524 8.304-65.272 21.28-93.11 12.977-27.837 27.553-52.083 41.138-75.51 13.586-23.427 25.366-43.925 34.324-62.95 8.957-19.028 15.182-36.652 17.258-54.055 2.082-17.41-.063-34.725-6.124-55.074-6.062-20.347-13.22-44.3-20.595-71.65-7.366-27.353-14.845-57.947-19.524-92.89-4.677-34.945-11.044-72.38-3.887-105.402 7.152-33.024 27.402-61.92 41.812-92.314 14.409-30.395 15.372-72.834 1.15-104.46-14.218-31.627-19.636-58.732-18.34-105.014.647-23.142 2.25-45.889 5.05-67.988 2.798-22.098 7.488-43.857 12.214-65.014"/>
            <path d="M639.376 1235.115c-25.297-22.663-51.396-42.886-73.517-66.42-22.123-23.533-41.944-48.742-57.6-75.671-15.657-26.932-28.233-50.792-28.165-85.158.072-34.367.432-70.519.647-101.942.214-31.423 8.895-61.054 21.731-87.014 12.837-25.96 26.95-47.85 40.209-69.586 13.26-21.736 24.824-40.909 33.43-59.087 8.605-18.181 14.247-35.236 16.099-52.868 1.85-17.63-.054-34.875-6.587-56.695-6.534-21.82-13.829-47.04-20.673-75.895-6.843-28.857-13.52-60.861-17.239-97.253-3.72-36.393-8.159-77.981-2.237-111.534 5.926-33.557 26.97-64.277 44.674-95.72 17.7-31.444 26.537-72.316 14.014-104.887-12.523-32.574-24.23-54.76-22.643-97.977.794-21.608 2.56-43.994 5.08-65.966 2.516-21.973 6.28-43.093 11.365-64.023"/>
            <path d="M618.674 1233.458c-25.534-20.924-51.926-39.273-74.071-60.978-22.144-21.705-41.771-44.98-57.379-69.903-15.609-24.924-26.734-52.199-28.49-78.73-1.995-30.155 1.425-67.212 1.962-96.749.536-29.539 8.482-57.586 20.999-82.407 12.516-24.825 25.736-44.638 38.344-65.18 12.607-20.54 23.257-38.685 31.28-56.579 8.024-17.896 12.8-34.85 14.396-52.881 1.592-18.033-.467-36.638-6.098-57.633-5.625-20.997-13.43-48.473-19.536-78.507-6.106-30.035-11.883-63.36-14.54-101.258-1.329-18.948-1.957-38.908-2.005-59.43-.049-20.522-.715-39.961 1.83-58.39 5.084-36.86 25.17-67.566 45.815-100.147 20.643-32.582 38.02-71.603 27.857-105.635-10.156-34.03-27.152-60.977-26.204-93.97.475-16.496 2.309-41.028 4.932-62.21 2.627-21.181 5.924-42.123 10.593-62.555"/>
            <path d="M600.225 1237.284c-25.89-19.044-51.988-36.002-74.664-55.404-22.683-19.4-41.551-41.67-57.197-64.973-15.648-23.302-25.3-47.806-28.98-73.79-3.678-25.987 1.458-62.653 1.978-92.023.514-29.371 7.217-55.832 18.452-79.152 11.239-23.32 23.85-42.651 35.304-62.273 11.456-19.618 21.395-37.721 28.527-55.243 7.136-17.522 11.791-34.595 13.32-52.435 1.534-17.846.12-36.59-4.74-57.7-4.857-21.108-12.182-49.209-18.527-79.543-6.342-30.331-11.765-64.598-13.406-104.036-.817-19.718-.777-40.598-.052-62.14.725-21.541 1.456-44.035 3.819-63.312 4.729-38.554 25.546-73.66 47.002-106.194 21.448-32.535 45.7-71.455 40.997-106.608-4.701-35.154-25.157-61.941-27.836-93.785-1.34-15.922.909-36.813 3.528-56.775 2.623-19.96 6.046-40.98 10.515-60.659"/>
            <path d="M584.95 1245.73c-25.451-17.153-52.453-33.059-75.548-50.812-23.095-17.75-42.022-38.324-57.91-60.112-15.893-21.793-26.408-45.25-30.462-69.637-4.053-24.393.68-60.265.958-88.173.28-27.912 4.709-54.304 14.864-77.637 10.151-23.329 20.94-41.228 31.4-60.319 10.459-19.094 19.458-36.565 26.154-53.673 6.695-17.112 11.022-33.768 12.744-51.454 1.718-17.68-.896-34.916-6.25-54.998-5.359-20.076-13.454-47.39-18.77-79.139-5.321-31.748-9.505-67.694-9.865-108.908-.18-20.607.508-42.402 1.88-64.9 1.37-22.495 3.553-47.097 5.849-67.772 2.294-20.674 7.72-41.838 16.33-60.21 8.612-18.373 20.879-36.84 32.857-53.946 11.976-17.106 23.827-33.156 34.426-51.254 10.602-18.097 17.904-37.587 18.45-56.94 1.095-38.703-22.118-65.992-26.532-95.288-4.414-29.296 3.031-71.442 11.72-110.655"/>
            <path d="M571.481 1257.76c-25.269-15.798-52.693-30.121-75.834-46.005-23.144-15.881-42.925-35.113-59.03-55.588-16.108-20.473-27.985-43.796-33.054-67.199-5.072-23.403-1.38-58.584-1.467-85.406-.087-26.823 2.3-54.214 10.79-76.801 8.497-22.59 18.156-40.36 27.538-58.852 9.38-18.49 18.141-35.898 23.344-51.721 5.202-15.824 8.174-31.17 8.655-47.532.492-16.37-1.446-33.769-6.042-53.918-4.592-20.153-11.902-47.367-16.318-80.376-4.403-33.014-7.49-70.514-6.665-113.388.412-21.436 1.718-44.095 3.738-67.499 2.02-23.404 4.749-47.553 7.994-71.932 3.244-24.378 6.629-43.19 15.424-63.87 8.793-20.681 20.328-38.623 33.593-57.317 13.267-18.693 27.195-36.082 39.105-53.614 11.906-17.533 23.004-36.274 26.58-57.32 7.152-42.093-16.122-68.315-23.226-98.962-7.097-30.646.544-66.386 8.693-104.262"/>
            <path d="M560.634 1274.332c-25.082-15.095-52.018-27.357-75.731-41.97-23.708-14.618-44.117-32.495-61.232-52.34-17.113-19.842-30.553-41.837-37.213-66.184-6.66-24.345-4.482-54.247-4.93-83.007-.448-28.762-.354-54.1 6.736-77.196 7.094-23.099 15.44-40.664 22.308-56.89 6.868-16.225 13.856-33.01 18.423-48.38 4.553-15.366 7.223-30.353 7.759-46.491.542-16.14-1.029-33.426-4.909-53.647-3.88-20.223-10.62-46.705-14.284-80.79-1.83-17.045-3.293-35.265-4.048-54.8-.754-19.532-.795-40.382.146-62.57.944-22.188 2.805-45.635 5.407-69.877 2.604-24.24 5.947-49.274 9.83-74.593 3.885-25.32 7.223-47.418 15.439-68.538 8.216-21.123 20.665-41.444 34.263-60.497 13.596-19.052 28.613-37.472 42.107-55.966 13.496-18.497 26.515-38.386 33.44-58.251 13.852-39.73-8.339-72.71-17.42-103.19-9.078-30.48-3.5-63.534 5.308-99.718"/>
            <path d="M552.924 1295.142c-24.093-14.584-51.964-25.342-76.53-39.19-24.571-13.849-46.372-30.847-64.493-50.589-18.121-19.744-33.54-42.079-42.372-66.31-8.828-24.231-8.575-54.92-9.696-82.284-1.12-27.364-2.6-54.279 1.876-76.684 4.474-22.406 11.654-40.132 17.421-56.048 5.766-15.918 11.656-31.785 15.603-46.716 3.949-14.931 6.373-29.576 6.986-45.525.613-15.946-.572-33.197-3.79-53.57-3.213-20.377-9.454-45.795-12.484-80.743-1.514-17.472-2.592-36.216-2.919-56.318-.325-20.104.1-41.575 1.524-64.41 1.427-22.837 3.793-46.966 6.916-71.94 3.122-24.975 7.002-50.795 11.43-76.963 4.433-26.17 7.78-49.626 15.814-72.724 8.031-23.099 20.812-44.323 34.712-63.7 13.899-19.378 29.924-38.537 45.084-57.908 15.16-19.372 28.759-37.915 38.294-59.364 19.076-42.9-.583-79.633-10.121-108.437-9.532-28.802-6.997-62.172 1.586-96.705"/>
            <path d="M546.525 1319.884c-23.003-14.94-50.417-25.999-76.36-39.639-25.952-13.635-49.749-29.29-69.347-49.402-19.597-20.114-37.023-42.862-48.19-67.473-11.166-24.61-14.142-56.29-16.105-82.757-1.96-26.47-4.47-53.835-1.788-76.565 2.686-22.73 8.457-40.114 13.233-55.779 4.773-15.667 9.686-30.72 13.171-45.315 3.49-14.598 5.719-28.998 6.417-44.88.705-15.88-.137-33.219-2.753-53.86-2.612-20.642-8.333-44.998-10.85-80.557a790.678 790.678 0 0 1-1.966-57.49c.039-20.562.88-42.535 2.741-65.9 1.86-23.361 4.691-48.045 8.297-73.625 3.608-25.577 7.994-52.046 12.946-78.924 4.957-26.882 9.013-52.544 16.655-76.105 7.636-23.56 20.88-47.25 34.97-66.898 14.086-19.649 31.22-40.007 47.345-59.529 16.125-19.523 30.775-37.423 42.882-60.302 12.11-22.879 16.194-44.676 12.682-63.872-3.508-19.198-11.235-35.364-16.213-50.357-9.954-29.986-10.37-62.08-1.124-95.253"/>
            <path d="M541.717 1345.798c-20.993-13.892-47.11-26.693-72.29-38.776-25.18-12.082-50.92-26.06-71.967-44.249-21.047-18.188-39.717-39.424-54.43-62.817-14.71-23.397-25.388-47.723-28.594-76.446-3.205-28.724-6.23-52.966-6.83-76.896-.602-23.93 2.048-43.139 5.665-59.644 3.627-16.512 7.405-30 10.969-43.926 3.563-13.925 6.439-27.164 8.25-41.113 1.808-13.946 2.565-28.596 2.077-45.43-.484-16.836-2.189-35.857-5.359-58.69-3.171-22.837-7.062-55.16-7.199-92.878-.072-18.861.541-39.066 1.971-60.498 1.429-21.432 3.678-44.091 6.83-67.806 3.151-23.715 7.088-48.414 11.635-73.726 4.55-25.312 9.718-51.237 15.331-77.357 5.615-26.12 10.74-47.58 21.13-69.211 10.392-21.631 24.784-42.134 40.386-61.592 15.6-19.456 32.485-38.25 48.12-57.391 15.632-19.141 30.1-38.406 39.997-59.55 19.794-42.288.098-79.968-8.752-108.738-8.856-28.77-9.668-58.166-1.052-89.883"/>
            <path d="M537.1 1372.65c-20.092-15.197-46.052-28.273-72.934-41.258-26.881-12.985-54.362-25.77-77.512-44.492-23.157-18.72-43.298-40.523-60.185-64.713-16.89-24.189-29.048-50.288-35.417-78.708-6.367-28.422-7.931-53.666-9.296-78.017-1.357-24.35-.018-43.577 2.653-60.104 2.674-16.527 5.799-30.18 8.788-44.094 2.993-13.914 5.5-27.182 7.152-41.265 1.647-14.082 2.459-28.97 2.246-46.183-.218-17.212-1.448-36.741-3.934-60.243-2.476-23.502-6.3-54.853-6.023-92.883.14-19.013 1.013-39.43 2.738-61.099 1.721-21.668 4.297-44.587 7.792-68.561 3.497-23.978 7.805-48.958 12.762-74.58 4.956-25.624 10.547-51.888 16.59-78.395 6.04-26.507 11.335-49.583 21.636-71.3 10.304-21.717 25.466-43.316 41.563-62.868 16.096-19.551 33.891-38.72 50.646-58.37 16.755-19.648 31.895-38.447 43.222-60.611 11.328-22.164 14.56-44.202 11.155-63.15-3.406-18.948-11.242-35.095-16.406-50.123-10.328-30.058-10.385-59.629-2.25-90.943"/>
            <path d="M531.777 1400.311c-19.498-16.812-45.693-31.155-73.544-44.949-27.852-13.794-57.17-27.235-83.214-45.557-26.05-18.32-47.054-41.625-65.75-66.718-18.697-25.09-33.092-52.259-41.218-81.404-8.125-29.145-10.29-55.623-12.153-79.99-1.867-24.367-1.72-44.09.216-61.088 1.933-17.001 4.356-30.911 6.83-45.038 2.473-14.128 4.657-27.644 6.189-42.067 1.526-14.422 2.417-29.747 2.478-47.525.066-17.778-.683-38.004-2.485-62.348-1.795-24.345-5.427-55.08-4.834-93.186.298-19.054 1.381-39.565 3.347-61.344 1.971-21.777 4.825-44.821 8.625-68.911 3.796-24.09 8.435-49.191 13.732-74.957 5.297-25.764 11.255-52.194 17.679-78.9 6.422-26.71 11.952-50.908 22.353-72.528 10.4-21.618 26.25-43.834 42.908-63.306 16.656-19.471 35.252-38.793 53.104-58.728 17.85-19.933 33.62-38.408 46.096-61.304 12.475-22.896 16.631-45.46 13.225-65.174-3.408-19.713-11.49-36.431-16.823-52.046-10.671-31.227-11.95-62.115-2.797-92.852"/>
            <path d="M524.94 1427.776c-18.793-17.554-45.712-34.861-74.423-49.342-28.714-14.48-60.393-28.805-88.229-47.483-27.839-18.679-51.048-42.288-71.306-68.528-20.263-26.238-36.305-54.735-46.07-84.686-9.766-29.95-12.89-57.1-15.2-82.754-2.31-25.65-2.751-45.214-1.547-62.644 1.207-17.428 3.289-32.31 5.231-46.744 1.948-14.434 3.96-28.58 5.424-43.574 1.46-14.995 2.603-31.048 4.041-49.625 1.44-18.577 1.86-39.908 1.48-64.996-.376-25.086-2.198-55.504.111-93.915 1.154-19.207 3.011-39.929 5.284-61.781 2.274-21.854 4.938-45.011 8.097-68.967 3.16-23.958 6.834-48.777 11.231-74.297a1777.7 1777.7 0 0 1 15.39-78.571c5.872-26.791 11.088-49.692 22.157-72.842 11.065-23.15 27.131-43.854 44.43-63.055 17.296-19.2 36.842-38.361 55.592-58.296 18.749-19.933 35.145-38.257 48.514-61.553 13.37-23.296 17.867-46.254 14.302-66.47-3.567-20.218-12.138-37.418-17.936-53.599-11.598-32.36-11.75-64.823-2.785-95.362"/>
            <path d="M515.956 1454.706c-19.04-19.188-45.786-38.857-75.578-54.413-29.798-15.554-63.477-30.336-93.204-49.78-29.726-19.446-54.66-44.7-76.167-71.698-21.515-27-39.214-56.955-50.26-87.748-11.052-30.79-15.27-59.892-17.915-85.884-2.646-25.99-3.343-46.65-2.607-64.894.731-18.244 1.986-33.947 4.161-49.268 2.177-15.32 4.135-30.996 6.88-46.624 2.74-15.63 5.971-31.588 8.426-50.572 2.459-18.984 2.839-41.424 3.2-67.023.364-25.597-.048-55.9 3.763-94.793 1.906-19.447 4.473-40.415 7.191-62.454 2.717-22.036 5.527-45.448 8.482-69.424 2.956-23.976 6.165-48.643 10.067-73.821 3.902-25.177 8.425-50.978 13.83-77.273 5.41-26.297 9.876-49.265 20.177-72.361 10.302-23.099 25.956-43.868 43.775-62.918 17.816-19.051 38.468-37.403 57.996-57.054 19.531-19.648 36.859-37.878 50.63-61.148 13.77-23.267 17.972-46.516 14.125-66.908-3.845-20.394-13.175-37.772-19.161-54.39-11.977-33.24-12.152-67.676-1.956-98.02"/>
            <path d="M503.953 1480.821c-19.364-20.77-46.664-41.03-77.511-59.43-30.847-18.399-65.727-34.177-97.44-54.69-31.707-20.513-58.332-46.87-80.85-75.236-22.518-28.369-41.254-58.832-53.266-90.505-12.012-31.67-17.236-62.382-20.131-89.21-2.892-26.827-3.19-48.286-1.837-66.868 1.35-18.582 3.453-35.445 4.997-52.512 1.54-17.066 3.468-34.588 7.363-50.282 3.89-15.697 8.513-31.361 12.214-50.689 3.7-19.328 4.12-42.929 5.23-69.092 1.108-26.164 2.135-56.486 7.472-95.903 2.669-19.707 5.946-40.923 9.111-63.148 3.165-22.227 6.128-45.896 8.906-69.907 2.777-24.01 5.548-48.6 8.963-73.584 3.418-24.984 7.36-50.512 12.302-76.506 4.942-25.992 9.162-48.814 19.372-71.502 10.214-22.688 25.511-42.744 42.852-61.277 17.345-18.535 37.688-36.832 58.477-56.045 20.79-19.212 39.016-37.3 52.79-60.113 13.77-22.814 17.347-46.091 12.85-66.236-4.505-20.146-14.374-37.488-20.599-54.31-12.447-33.644-13.53-71.772-1.045-100.344"/>
            <path d="M488.716 1505.375c-19.274-21.414-44.124-44.028-74.214-63.497-30.096-19.466-63.84-36.48-95.989-56.709-32.146-20.23-60.714-43.391-83.608-71.249-22.887-27.856-42.798-56.993-57.527-86.788-14.732-29.797-22.206-61.532-27.049-89.317-4.843-27.788-5.59-52.036-4.699-71.553.888-19.518 3.89-36.587 5.188-54.271 1.3-17.686 1.486-35.85 3.705-53.174 2.213-17.322 8.597-31.312 13.745-46.854 5.153-15.541 11.076-33.17 13.188-55.61 2.107-22.442 3.116-47.547 4.942-74.67 1.823-27.123 8.99-65.287 16.023-106.521 3.518-20.617 6.928-42.104 9.66-64.506 2.732-22.4 4.792-45.299 7.153-68.4 2.363-23.102 4.97-46.49 8.373-70.287 3.403-23.797 7.704-49.827 12.734-71.338 5.027-21.512 14.273-44.207 26.592-62.642 12.319-18.436 29.145-37.78 46.243-54.216 17.1-16.437 36.544-33.644 54.193-50.452 17.646-16.807 36.96-38.11 47.672-57.378 21.42-38.537-7.998-75.038-21.284-109.115-13.287-34.079-9.566-68.585 2.683-96.066"/>
            <path d="M470.787 1525.739c-19.02-23.413-46.693-49.358-77.595-71.696-30.904-22.338-66.249-40.68-98.817-62.805-32.573-22.125-62.35-47.916-85.37-76.197-22.855-28.082-42.944-58.86-57.646-88.604-14.703-29.742-23.14-60.056-28.744-89.29-5.606-29.236-5.484-53.831-3.724-73.184 1.757-19.352 5.664-36.036 7.157-55.936 1.494-19.901.618-39.141 2.998-57.814 2.381-18.67 10.624-32.427 17.19-47.84 6.567-15.413 14.116-33.17 16.882-56.438 2.772-23.269 4.269-49.192 7.2-76.55 2.927-27.355 11.933-66.08 19.918-107.619 3.99-20.767 7.638-42.365 10.249-64.832 2.612-22.468 4.252-45.275 6.109-68.2 1.86-22.927 3.887-46.032 6.745-69.576 2.855-23.545 6.216-48.767 11.47-70.474 5.253-21.706 14.57-43.644 27.087-62.144 12.513-18.501 29.09-37.277 45.726-53.655 16.638-16.378 35.191-33.476 51.454-49.536 16.262-16.058 34.135-33.26 43.428-54.902 18.588-43.28-5.838-70.62-19.067-104.218-13.232-33.598-7.717-68.015 5.327-95.891"/>
            <path d="M448.534 1540.71c-21.022-26.43-48.533-56.367-79.904-80.81-15.683-12.224-31.932-24.666-48.797-36.313-16.864-11.65-34.288-23.08-50.477-35.13-16.187-12.047-31.812-24.638-46.347-37.925-14.533-13.288-27.418-27.898-39.172-42.46-23.519-29.13-43.516-58.506-58.745-87.435-15.224-28.93-24.73-57.678-30.897-88.239-6.17-30.56-5.025-55.472-2.197-74.525 2.823-19.054 8.022-35.788 9.676-57.247 1.653-21.457-.013-42.39 2.66-62.352 2.67-19.962 12.938-33.382 21.003-48.633 8.066-15.251 17.31-33.2 20.712-57.345 3.4-24.145 5.568-50.804 9.677-78.39 4.112-27.585 14.987-66.91 23.727-108.585 4.372-20.838 8.145-42.511 10.49-64.965 2.348-22.453 3.48-45.043 4.736-67.719 1.254-22.678 2.684-45.394 5.019-68.592 2.337-23.198 5.261-47.715 10.493-69.37 5.23-21.655 15.085-42.933 27.643-61.669 12.557-18.734 28.548-37.101 44.566-53.521 16.014-16.417 32.669-30.968 49.423-48.858 16.755-17.892 31.968-34.114 38.996-54.19 14.065-40.15-5.322-63.859-18.113-96.157-12.79-32.3-5.947-66.122 8.37-94.244"/>
            <path d="M423.648 1548.34c-11.1-14.876-23.384-31.085-36.391-46.748-13.009-15.666-27.907-31.602-43.414-45.932-15.507-14.328-31.738-27.92-48.275-40.931-16.537-13.014-33.318-25.758-49.686-38.666-16.37-12.908-31.93-25.317-46.694-38.418-14.769-13.102-28.096-27.17-40.302-41.308-24.415-28.278-45.607-56.961-61.466-84.977-15.857-28.013-25.76-55.812-32.28-87.56-6.525-31.75-4.103-56.77-.012-75.407 4.093-18.637 10.694-35.397 12.588-58.428 1.892-23.03-.49-45.586 2.65-66.715 3.136-21.13 15.634-34.042 25.256-49.104 9.618-15.065 20.603-33.333 24.562-58.416 3.96-25.081 7.05-52.33 12.418-80.125 5.372-27.794 18.082-67.738 27.347-109.373 4.632-20.817 8.378-42.535 10.312-64.89 1.932-22.353 2.494-44.586 3.065-66.93.569-22.345 1.415-44.571 3.252-67.341 1.832-22.772 4.432-46.579 9.612-68.133 5.178-21.553 15.651-42.079 28.315-60.952 12.662-18.873 28.045-36.671 43.479-53.136 15.435-16.467 31.357-31.807 46.576-49.277 15.223-17.47 29.439-34.494 34.875-53.195 10.862-37.403-13.344-58.783-21.147-88.372-7.801-29.588-.14-62.35 15.117-90.297"/>
            <path d="M397.987 1547.354c-10.77-17.72-22.825-36.93-35.76-54.659-12.93-17.73-27.134-35.537-42.003-51.542-14.87-16.003-30.755-30.64-47.115-43.906-16.357-13.266-33.25-25.81-49.927-38.191-16.673-12.383-33.222-24.824-48.796-37.357-15.58-12.533-29.799-25.776-42.799-39.216-26.002-26.883-47.936-53.8-63.958-81.398-16.026-27.598-25.427-56.645-32.067-89.44-6.647-32.794-2.604-57.553 2.924-75.676 5.53-18.125 13.57-34.989 15.716-59.668 2.149-24.68-.876-48.747 2.946-70.859 3.818-22.113 18.766-34.302 29.957-49.166 11.195-14.864 23.94-33.62 28.352-59.709 4.408-26.09 8.733-53.736 15.437-81.707 6.703-27.972 21.162-68.465 30.686-109.865 4.764-20.697 8.32-42.432 9.684-64.596 1.369-22.162.995-44.219 1.127-65.822.134-21.603.39-43.276 1.434-65.902 1.038-22.624 3.011-45.845 8.964-66.736 5.954-20.891 16.231-41.191 28.985-60.12 12.754-18.925 27.218-36.107 41.89-52.572 14.673-16.465 30.027-32.252 43.82-49.284 13.797-17.035 26.305-35.183 29.875-52.961 7.136-35.56-16.624-57.3-23.445-83.357-6.817-26.057 5.538-55.464 21.772-82.788"/>
            <path d="M372.904 1534.582c-10.991-20.426-22.347-41.34-34.801-61.522-12.458-20.184-24.947-37.031-39.505-52.947-14.56-15.916-30.915-30.217-48.09-43.174-17.177-12.956-35.044-24.672-52.89-36.033-17.847-11.362-35.386-22.412-51.888-33.632a394.049 394.049 0 0 1-45.259-35.882c-27.313-25.147-48.799-51.725-63.97-80.576-15.178-28.854-24.359-60.831-30.886-94.535-6.526-33.705-.46-57.68 6.656-75.218 7.116-17.542 17.266-36.991 18.889-61.116 1.612-24.127-1.22-51.89 3.533-74.748 4.753-22.857 20.824-33.78 35.168-48.772 14.341-14.993 27.248-34.663 31.888-61.257 4.642-26.591 10.686-54.998 18.774-83.099 8.094-28.1 24.142-68.98 33.652-109.925 4.756-20.472 7.942-42.184 8.583-64.055.643-21.872-.379-43.22-.965-64.308-.59-21.085-1.227-42.288-.597-64.442.627-22.155 2.458-44.465 8.776-65.217 6.319-20.754 16.802-40.267 29.38-59.272 12.58-19.006 26.126-35.422 39.989-51.793 13.861-16.37 28.054-32.768 40.662-49.007 12.612-16.24 23.254-35.389 25.329-52.297 4.155-33.823-18.882-55.312-24.227-80.693-5.347-25.383 9.569-48.074 27.027-73.994"/>
            <path d="M348.61 1510.976c-9.757-21.586-20.141-42.524-32.03-61.82-11.893-19.3-25.291-36.543-40.924-51.692-15.635-15.149-33.471-27.725-51.927-38.882-18.458-11.156-37.66-20.86-56.737-30.426-19.083-9.566-37.661-18.947-54.37-29.137-16.709-10.192-32.028-22.007-45.28-34.78-26.5-25.55-47.323-54.21-61.926-85.297-14.603-31.088-23.958-66.215-29.903-100.875-5.945-34.659 2.375-57 11.184-73.92 8.81-16.921 20.125-37.193 21.855-62.771 1.739-25.572-3.366-55.04 4.619-78.462 7.988-23.424 24.755-33.02 40.74-47.929 15.992-14.91 29.93-35.479 35.053-63.048 5.129-27.57 12.914-56.107 22.428-84.278 9.512-28.174 26.917-69.221 36.122-109.493 4.604-20.136 7.224-41.777 6.997-63.25-.23-21.474-1.876-41.931-3.236-62.425-1.356-20.495-2.816-41.166-2.538-62.788.278-21.62 2.158-43.117 8.853-63.706 6.696-20.59 16.993-39.453 29.429-58.439 12.436-18.987 24.893-34.633 37.905-50.84 26.028-32.42 56.699-67.686 58.052-99.889 1.351-32.202-21.583-54.895-24.499-79.27-2.917-24.374 8.866-48.063 29.891-68.077"/>
            <path d="M327.17 1484.18c-9.86-21.427-21.104-41.993-34.12-59.587-13.016-17.593-27.879-32.622-45.099-44.88-17.215-12.258-36.85-22.234-56.87-31.006-20.02-8.772-39.045-16.798-58.305-25.46-19.258-8.66-36.733-17.99-53.627-28.88-16.89-10.892-31.354-23.248-44.552-37.184-26.396-27.876-46.276-58.738-60.287-92.477-14.01-33.74-23.797-72.176-28.804-107.261-5.004-35.084 5.963-55.449 16.455-71.747 10.488-16.299 22.7-37.723 24.492-64.847 1.79-27.122-3.69-58.398 6.187-81.808 9.872-23.415 28.983-31.803 46.503-46.68 17.526-14.873 32.236-36.556 37.852-65.125 5.622-28.566 13.158-52.81 26.507-85.449 13.352-32.639 29.308-69.089 37.959-108.56 4.324-19.74 5.936-41.655 5.05-62.145-.887-20.489-3.516-40.48-5.69-60.245-2.172-19.764-4.364-39.754-4.428-60.734-.062-20.98 2.02-41.712 9.058-62.082 7.039-20.37 17.963-40.053 29.034-57.174 11.07-17.123 23.785-34.08 35.489-50.275 23.4-32.384 51.309-67.452 50.559-98.038-.744-30.584-18.107-50.355-23.91-78.15-5.805-27.798 12.678-49.413 33.293-66.58"/>
            <path d="M303.741 1457.304c-11.625-19.95-24.078-36.385-38.808-50.376-14.73-13.993-32.257-25.013-50.23-34.695-17.976-9.683-38.038-17.485-57.49-25.827-19.445-8.341-39.216-16.175-58.054-25.453-18.837-9.279-36.948-19.146-53.25-31.493-16.303-12.344-31.092-25.814-44.092-40.952-13-15.137-24.364-31.07-34.25-47.96-9.884-16.89-17.778-35.006-24.547-53.25-13.536-36.489-23.542-77.228-27.201-112.457-3.66-35.233 10.108-52.984 22.345-68.716 12.241-15.731 24.856-38.692 26.637-67.452 1.775-28.766-3.8-61.624 8.25-84.672 12.053-23.05 33.44-30.217 52.355-45.113 18.917-14.894 34.13-37.91 40.272-67.486 6.142-29.573 16.555-54.167 30.927-86.58 14.368-32.412 31.502-68.794 39.421-107.436 3.957-19.322 4.659-41.055 2.849-60.96-1.807-19.905-5.212-38.822-8.253-57.837-3.041-19.013-5.994-38.3-6.375-58.499-.379-20.201 2.282-41.193 9.24-60.04 6.957-18.847 17.579-38.332 28.12-55.32s21.99-33.23 32.91-49.649c21.843-32.835 45.82-66.85 43.704-95.917-2.118-29.067-19.516-49.52-23.22-77.244-3.705-27.724 15.16-48.334 37.036-66.56"/>
            <path d="M276.092 1437.863c-27.183-31.076-57.32-48.265-94.423-66.62-18.55-9.176-38.123-16.536-57.867-25.385-19.746-8.85-39.405-17.507-58.198-27.658-18.796-10.154-36.771-22.025-53.176-35.623-16.403-13.597-30.922-29.551-43.993-46.302a311.42 311.42 0 0 1-33.632-53.468c-9.332-18.848-17.044-37.92-23.269-57.348-6.224-19.43-11.111-39.226-15.07-58.397-3.957-19.17-9.025-38.959-9.97-56.496-1.901-35.077 14.775-49.634 28.708-64.9 13.933-15.266 26.449-40.223 28.134-70.705 1.686-30.482-3.634-64.61 10.841-86.988 14.476-22.376 37.991-28.383 58.155-43.36 20.161-14.98 35.627-39.541 42.357-70.132 6.732-30.587 20.084-55.201 35.484-87.435 15.4-32.233 33.707-68.67 40.796-106.584 7.085-37.909-2.458-79.169-10.175-115.515-7.715-36.346-12.908-76.648.827-113.437 13.739-36.792 36.025-70.94 56.419-101.28 20.394-30.342 41.392-65.21 37.167-93.566-4.224-28.355-19.342-48.541-21.789-76.223-2.45-27.685 15.167-47.379 38.904-66.415"/>
            <path d="M244.349 1429.69c-27.582-22.03-57.57-40.323-95.038-58.106-18.737-8.892-39.074-17.637-58.771-26.913-19.697-9.276-40.016-19.729-58.928-31.713-18.916-11.984-37.535-26.553-53.744-42.36-16.209-15.807-30.956-34.67-43.415-53.186-12.46-18.515-22.978-38.303-31.724-57.982-8.75-19.678-15.862-39.258-21.749-58.748-5.885-19.49-9.344-38.518-14.367-58.527-5.018-20.01-8.589-39.556-8.44-56.837.297-34.563 19.83-45.43 35.325-60.384 15.496-14.955 27.355-42.36 28.878-74.579 1.524-32.22-3.155-67.31 14.013-88.531C-46.446 740.6-20.983 735.708.275 720.618c21.254-15.092 36.696-41.403 44.041-73.03 7.344-31.625 23.516-56.15 39.867-88.155 16.354-32.005 35.464-65.934 41.965-106.066 6.499-40.131-5.381-77.225-14.545-112.225-9.163-35.001-14.408-74.034-.902-109.352 13.51-35.318 32.886-67.537 50.803-96.14 17.919-28.6 36.251-61.268 31.172-89.826-5.08-28.556-18.863-47.915-20.228-75.332-1.356-27.415 16.674-45.111 39.996-65.028"/>
            <path d="M214.714 1428.122c-27.094-18.385-58.656-37.989-97.556-57.006-19.448-9.509-40.227-19.4-60.475-30.877-20.248-11.475-41.022-24.219-60.4-39.463-19.375-15.243-37.173-32.188-52.955-50.552-15.778-18.368-29.462-37.517-41.404-57.303-11.943-19.786-21.944-39.202-30.337-58.608-8.39-19.405-15.122-38.878-20.645-58.37-5.522-19.492-9.42-39.84-13.913-59.881-4.497-20.04-7.83-40.697-5.682-56.238 4.295-31.08 23.788-40.241 41.948-55.595 18.156-15.356 27.804-46.92 29.058-78.262 1.256-31.343-1.281-70.632 18.217-88.72 19.493-18.087 46.68-24.402 68.674-39.794 21.986-15.395 37.113-43.643 45.118-76.325 8.003-32.68 26.973-56.965 44.12-88.555 17.151-31.594 37.456-65.726 42.765-105.317 5.309-39.591-8.651-75.496-18.674-109.375-10.024-33.878-14.993-71.652-1.904-106.263 13.09-34.61 29.976-65 45.086-91.203 15.112-26.201 30.266-56.539 25.018-83.817-5.252-27.278-18.153-47.252-18.507-74.299-.355-27.045 16.894-43.94 40.534-63.14"/>
            <path d="M186.906 1428.049c-13.4-8.672-27.876-18.018-45.03-28.605-17.153-10.589-38.05-21.333-58.142-32.677-20.095-11.344-41.96-24.219-62.857-38.957-20.896-14.739-41.205-31.068-59.838-48.253-18.636-17.185-35.89-36.15-51.194-54.458-15.303-18.309-28.884-37.646-40.444-56.651-11.559-19.006-21.09-38.179-28.744-57.575-7.653-19.395-13.87-39.1-18.952-59.92-5.08-20.817-9.627-41.853-13.488-61.86-3.858-20.005-5.938-40.188-1.89-54.593 8.098-28.807 30.065-33.767 49.186-49.681 19.12-15.916 26.883-49.881 27.79-82.577.911-32.699.538-71.711 22.204-88.744 21.669-17.03 50.464-22.864 73.016-38.646 22.551-15.78 35.322-50.25 45.944-79.949 10.623-29.693 30.539-57.63 48.319-88.46 17.774-30.833 39.032-64.952 42.963-103.807 3.93-38.857-11.914-73.498-22.729-106.405-10.816-32.909-14.835-70.335-2.28-104.54 12.556-34.208 27.91-63.443 40.188-87.95 12.281-24.505 24.25-51.082 18.861-76.092-5.386-25.006-17.242-44.792-16.899-71.59.342-26.797 16.872-44.58 40.421-61.993"/>
            <path d="M159.99 1426.917c-14.28-9.192-30.133-19.794-49.212-31.972-19.074-12.175-41.332-25.625-62.595-40.689-21.265-15.063-42.435-31.269-63.042-48.218-20.605-16.949-39.75-33.74-58.736-51.255-18.984-17.517-35.766-34.233-50.762-52.696-14.996-18.463-27.591-36.377-38.297-55.413-10.71-19.035-19.19-38.67-26.285-59.019-7.094-20.347-12.818-41.295-17.708-63.077-9.787-43.566-21.826-88.141-8.613-113.182 13.215-25.038 35.186-27.97 54.309-45.328 19.123-17.356 24.316-53.654 24.975-87.579.662-33.923 3.057-72.11 26.947-88.025 23.889-15.921 53.965-21.607 76.828-37.968 22.865-16.363 34.839-53.04 46.8-83.323 11.96-30.288 33.852-58.586 52.069-88.37 18.216-29.783 40.15-63.711 42.608-101.49 2.455-37.78-14.662-70.574-26.38-102.389-11.715-31.814-15.354-69.251-2.664-103.444 12.69-34.196 25.92-63.623 36.715-86.69 10.79-23.068 19.724-46.908 13.598-68.68-6.13-21.772-16.982-39.541-16.371-66.35.613-26.812 16.338-47.169 39.786-62.549"/>
            <path d="M133.545 1423.23c-15.903-10.526-34.62-24.167-55.97-40.37-21.35-16.202-43.034-32.77-64.352-50.42a2942.414 2942.414 0 0 0-62.94-50.666c-20.673-16.18-41.023-31.733-59.185-47.965-18.16-16.234-34.393-33.44-48.455-51.437-14.062-17.994-25.467-37.02-35.44-56.646-9.973-19.63-17.767-41.116-24.231-61.957-6.464-20.84-11.394-43.03-15.832-65.2-8.873-44.343-14.037-89.046-1.581-108.458 12.458-19.408 38.942-22.824 57.495-42.257 18.555-19.432 21.185-57.731 21.51-92.937.323-35.208 6.39-71.651 32.44-86.375 26.051-14.723 53.174-18.47 80.467-37.626 27.292-19.156 33.794-55.765 47.141-86.62 13.344-30.852 36.911-59.226 55.551-87.762 18.643-28.534 41.178-62.109 42.191-98.654 1.013-36.548-17.763-67.5-30.503-98.1-12.74-30.597-15.268-67.1-2.97-101.565 12.296-34.467 25.03-64.761 34.312-87.597 9.281-22.833 16.037-45.448 10.023-63.748-6.015-18.302-19.305-35.86-17.225-57.996 2.08-22.137 15.385-49.273 39.235-63.816"/>
            <path d="M105.633 1413.615c-18.379-14.183-39.898-33.121-61.47-51.514-21.572-18.39-43.496-37.602-65.02-53.965-21.526-16.366-43.608-30.97-64.538-45.828-20.928-14.863-39.793-29.201-57.361-45.705-17.57-16.502-32.43-34.68-45.413-53.044-12.982-18.367-23.93-38.955-32.637-59.557-8.707-20.601-15.735-41.779-21.697-63.867-5.963-22.09-11.123-45.425-15.524-68.068-8.797-45.282-10.78-84.308 4.865-100.904 15.641-16.597 42.978-19.246 60.533-41.264 17.55-22.024 17.45-61.964 17.643-98.156.192-36.194 11.335-73.145 38.45-84.251 27.11-11.11 56.728-17.95 83.597-38.32 26.87-20.37 32.28-58.207 47.043-89.5 14.765-31.296 39.685-59.419 58.684-86.719 19-27.301 41.989-60.593 41.734-95.69-.255-35.1-20.233-63.93-33.75-92.695-13.522-28.767-16.369-64.636-4.576-98.965 11.796-34.33 24.035-65.292 32.364-88.797 8.337-23.506 14.968-44.89 9.256-61.656C92.1-21.618 77.171-34.769 78.752-54.27c1.58-19.501 15.395-47.148 38.085-63.201"/>
            <path d="M75.964 1395.189c-20.444-19.307-42.392-39.967-64.506-58.334-22.11-18.368-45.556-34.508-67.729-48.64-22.169-14.13-43.81-27.57-63.844-41.607-20.032-14.033-38.103-30.088-54.511-46.937-16.41-16.848-30.445-35.924-42.244-55.762-11.8-19.836-21.515-40.516-29.702-62.086-8.189-21.567-15.095-44.162-20.916-66.883-5.821-22.725-10.663-48.444-15.648-68.843-9.97-40.796-5.855-78.222 13.009-92.018 18.868-13.796 47.064-17.46 61.988-42.055 14.926-24.6 13.151-66.98 13.612-103.815.46-36.83 16.414-70.23 44.734-80.828 28.322-10.595 60.086-17.738 86.439-39.448 26.355-21.71 31.029-60.746 47.286-92.432C.19 463.82 26.128 436.31 45.378 410.433c19.25-25.878 42.486-58.458 40.955-92.345-1.529-33.888-22.718-60.878-37.098-88.017-14.382-27.14-17-61.192-5.77-94.64 11.236-33.45 21.76-65.242 30.062-89.075 8.305-23.832 14.8-46.34 9.72-62.607-5.083-16.269-19.163-26.377-19.446-41.852-.286-15.475 11.862-42.876 34.888-59.554"/>
            <path d="M45.963 1370.359c-21.732-21.133-44.442-39.925-68.232-56.012-23.791-16.088-47.287-28.55-69.072-41.544-21.784-12.994-42.087-25.936-61.546-41.078-19.463-15.142-36.56-31.589-51.675-50.217-15.115-18.626-27.94-37.675-39.056-58.566-11.114-20.89-20.47-42.643-28.263-65.391-7.797-22.748-14.608-45.763-20.266-69.555-5.654-23.793-11.284-46.615-15.558-66.68-8.549-40.128.533-71.158 22.606-82.535 22.07-11.38 48.979-16.944 61.471-45.566 12.493-28.62 8.754-71.3 9.671-108.774.916-37.479 23.003-66.94 52.54-77.43 29.533-10.492 63.387-18.58 89.135-41.366 25.741-22.788 29.933-62.64 47.764-94.555 17.833-31.91 42.027-55.848 64.027-83.597 22.001-27.75 42.304-57.01 39.339-89.176-2.97-32.163-25.446-56.759-40.872-81.572-15.423-24.811-18.54-58.368-7.716-90.504 10.825-32.135 19.906-63.305 27.276-87.527 7.374-24.22 13.659-47.439 11.267-64.36-2.391-16.92-15.84-25.63-17.761-37.903-1.92-12.276 7.68-33.46 30.031-51.805"/>
            <path d="M15.222 1344.363c-23.14-18.865-47.968-34.118-72.157-47.065-24.188-12.943-46.372-24.736-67.665-38.195-21.297-13.459-41.592-28.093-59.401-43.666-17.807-15.57-34.418-34.17-48.582-53.542-14.169-19.372-27.013-39.968-37.279-62.34-10.267-22.375-19.483-45.384-26.967-68.59-7.482-23.205-13.563-47.31-19.25-70.495-5.685-23.188-11.76-43.312-15.149-63.438-6.768-40.251 12.19-62.762 32.813-72.573 20.615-9.814 48.15-18.94 59.226-51.57 11.077-32.625 5.873-75.86 7.428-113.3 1.555-37.442 29.627-61.962 60.313-72.275 30.69-10.31 66.138-19.571 90.998-43.69 24.862-24.121 28.725-64.791 48.117-96.958 19.391-32.165 44.404-55.313 66.5-81.675 22.092-26.358 42.379-54.744 38.294-85.164-4.086-30.418-28.073-53.879-44.666-77.18-16.589-23.299-20.856-53.64-10.768-84.643 10.087-31.002 20.272-58.582 25.24-84.57 4.971-25.991 12.567-46.747 11.783-65.34-.785-18.595-10.086-27.014-13.367-37.388-3.273-10.37 2.76-24.686 23.92-41.672"/>
            <path d="M-17.517 1322.43c-26.295-16.088-51.766-28.89-77.23-41.48-25.462-12.587-47.956-26.657-69.185-41.723-21.231-15.063-40.84-32.097-58.351-50.751-17.509-18.656-32.917-40.925-46.859-63.878-13.94-22.952-25.18-47.558-34.54-72.138-9.367-24.58-17.164-49.302-23.87-74.348-6.71-25.044-13.698-48.81-19.012-70.192-5.313-21.382-9.235-44.24-4.878-59.855 8.72-31.226 33.816-34.2 60.425-47.063 26.601-12.863 40.558-48.244 41.812-90.534.625-21.144-.397-41.586.062-62.074.459-20.49 3.92-41.719 16.195-55.305 24.556-27.176 63.315-26.605 97.319-40.302 34.005-13.695 61.049-43.077 73.024-80.82 5.987-18.87 13.327-36.27 25.237-53.372 11.91-17.105 25.7-32.128 37.815-44.755 24.232-25.254 51.56-51.666 62.014-80.693 10.453-29.03-7.704-62.747-27.255-85.05-19.546-22.304-41.488-46.615-36.06-77.75C4.574 99.214 18.25 67.82 24.463 41.931c6.213-25.887 11.525-46.64 13.493-69.79 1.973-23.153-3.74-37.663-5.875-45.534-2.133-7.87-.7-16.701 17.77-32.478"/>
            <path d="M-51.008 1304.919c-27.191-12.976-51.835-25.164-76.005-38.172-24.17-13.007-46.64-27.774-67.074-44.06a359.96 359.96 0 0 1-56.555-56.445 432.457 432.457 0 0 1-44.83-68.478c-12.697-24.127-22.676-49.668-31.458-74.39-8.784-24.719-16.283-49.51-23.08-73.367-6.797-23.854-14.424-45.783-18.614-67.014-4.188-21.23-5.484-42.33 2.089-55.533 15.142-26.402 41.069-25.915 66.074-41.863 25.004-15.95 34.982-58.478 34.491-99.152-.244-20.338-1.25-42.112-.459-61.967.787-19.854 7.578-41.802 21.072-52.155 26.99-20.703 65.372-22.276 98-35.735 32.627-13.46 57.948-43.189 69.687-80.801 5.872-18.808 14.052-35.365 26.694-52.403 12.644-17.036 26.3-31.443 38.882-44.082 25.163-25.275 53.612-53.275 65.016-81.962 11.406-28.683-6.3-62.01-26.186-82.68-19.89-20.675-42.933-43.845-38.554-72.916 4.384-29.068 16.854-60.426 22.214-84.2 5.36-23.774 9.499-46.03 12.471-66.119 2.976-20.087-.154-40.17-.102-49.127.052-8.958.13-12.416 15.286-23.207"/>
            <path d="M-83.516 1289.906c-26.704-11.703-51.408-24.678-74.801-38.71-23.393-14.033-44.938-29.383-64.729-48.02-19.792-18.637-38.948-39.813-55.082-62.138-16.137-22.326-29.864-47.88-41.308-72.913-11.445-25.031-21.096-49.783-29.454-74.113-8.356-24.335-15.944-48.612-22.954-71.231-14.017-45.234-19.74-94.556-5.43-113.742 14.314-19.185 45.449-19.831 68.088-39.56 22.64-19.73 27.518-64.236 25.544-105.51-1.971-41.276-4.884-89.743 23.339-105.727 28.224-15.985 66.073-14.76 97.054-26.599 30.984-11.84 53.501-42.241 64.582-79.351 11.088-37.112 40.785-68.09 67.53-93.984 26.743-25.894 57.457-55.118 70.094-85.432 12.639-30.316-4.753-66.483-23.202-88.624-18.441-22.14-42.204-41.951-38.507-70.845 3.7-28.895 15.132-58.248 20.066-80.711 4.93-22.464 6.779-42.45 10.93-61.403 4.148-18.953 4.718-38.816 5.483-50.304.762-11.49 1.84-13.659 14.991-18.557"/>
        </g>
    </g>
</svg>